<svg id="Design-Thinking-Process" xmlns="http://www.w3.org/2000/svg" width="1050" height="286.812">
  <defs>
    <style>
      .cls-11{fill:none;stroke:#9a9a9a;stroke-width:3px}.cls-11,.cls-12,.cls-13{fill-rule:evenodd}.cls-12{fill:#9a9a9a}.cls-13{fill:#fff}
    </style>
  </defs>
  <circle cx="125" cy="142.281" r="125" opacity=".24" fill="red"/>
  <circle id="Ellipse_1_Kopie" data-name="Ellipse 1 Kopie" cx="325" cy="142.281" r="125" opacity=".29" fill="#2ab7ca"/>
  <circle id="Ellipse_1_Kopie_2" data-name="Ellipse 1 Kopie 2" cx="525" cy="142.281" r="125" fill="#95c11f" opacity=".29"/>
  <circle id="Ellipse_1_Kopie_3" data-name="Ellipse 1 Kopie 3" cx="725" cy="142.281" r="125" fill="#f18e00" opacity=".29"/>
  <circle id="Ellipse_1_Kopie_4" data-name="Ellipse 1 Kopie 4" cx="925" cy="142.281" r="125" opacity=".28" fill="#b0317c"/>
  <g id="Gruppe_2" data-name="Gruppe 2">
    <circle id="Ellipse_1_Kopie_5" data-name="Ellipse 1 Kopie 5" cx="125" cy="142.281" r="125" opacity=".74" fill="red"/>
    <circle id="Ellipse_1_Kopie_6" data-name="Ellipse 1 Kopie 6" cx="325" cy="142.281" r="125" opacity=".74" fill="#2ab7ca"/>
    <circle id="Ellipse_1_Kopie_7" data-name="Ellipse 1 Kopie 7" cx="525" cy="142.281" r="125" opacity=".74" fill="#95c11f"/>
    <circle id="Ellipse_1_Kopie_8" data-name="Ellipse 1 Kopie 8" cx="725" cy="142.281" r="125" opacity=".74" fill="#f18e00"/>
    <circle id="Ellipse_1_Kopie_9" data-name="Ellipse 1 Kopie 9" cx="925" cy="142.281" r="125" opacity=".74" fill="#b0317c"/>
    <g id="Gruppe_3_Kopie" data-name="Gruppe 3 Kopie">
      <path id="Ellipse_2_Kopie" data-name="Ellipse 2 Kopie" class="cls-11" d="M377.8 598.5a141 141 0 0 1 199.4 0" transform="translate(-153 -555.719)"/>
      <path id="Polygon_1" data-name="Polygon 1" class="cls-12" d="M577.224 600.786l-18.608-7.4 11.209-11.209z" transform="translate(-153 -555.719)"/>
    </g>
    <g id="Gruppe_3_Kopie_2" data-name="Gruppe 3 Kopie 2">
      <path id="Ellipse_2_Kopie-2" data-name="Ellipse 2 Kopie" class="cls-11" d="M577.8 598.5a141 141 0 0 1 199.4 0" transform="translate(-153 -555.719)"/>
      <path id="Polygon_1-2" data-name="Polygon 1" class="cls-12" d="M777.224 600.786l-18.608-7.4 11.209-11.209z" transform="translate(-153 -555.719)"/>
    </g>
    <g id="Gruppe_3_Kopie_3" data-name="Gruppe 3 Kopie 3">
      <path id="Ellipse_2_Kopie-3" data-name="Ellipse 2 Kopie" class="cls-11" d="M778.8 598.5a141 141 0 0 1 199.4 0" transform="translate(-153 -555.719)"/>
      <path id="Polygon_1-3" data-name="Polygon 1" class="cls-12" d="M978.224 600.786l-18.608-7.4 11.209-11.209z" transform="translate(-153 -555.719)"/>
    </g>
    <g id="Gruppe_3_Kopie_5" data-name="Gruppe 3 Kopie 5">
      <path id="Ellipse_2_Kopie-4" data-name="Ellipse 2 Kopie" class="cls-11" d="M978.015 798.3a139.85 139.85 0 0 1-199.27 0" transform="translate(-153 -555.719)"/>
      <path id="Polygon_1-4" data-name="Polygon 1" class="cls-12" d="M778.724 797l18.595 7.473-11.2 11.321z" transform="translate(-153 -555.719)"/>
    </g>
    <g id="Gruppe_3_Kopie_6" data-name="Gruppe 3 Kopie 6">
      <path id="Ellipse_2_Kopie-5" data-name="Ellipse 2 Kopie" class="cls-11" d="M778.15 799.3a139.849 139.849 0 0 1-199.269 0" transform="translate(-153 -555.719)"/>
      <path id="Polygon_1-5" data-name="Polygon 1" class="cls-12" d="M578.859 797l18.595 7.473-11.2 11.321z" transform="translate(-153 -555.719)"/>
    </g>
    <g id="Gruppe_3_Kopie_7" data-name="Gruppe 3 Kopie 7">
      <path id="Ellipse_2_Kopie-6" data-name="Ellipse 2 Kopie" class="cls-11" d="M577.286 799.3a139.849 139.849 0 0 1-199.269 0" transform="translate(-153 -555.719)"/>
      <path id="Polygon_1-6" data-name="Polygon 1" class="cls-12" d="M378 797l18.595 7.473-11.2 11.321z" transform="translate(-153 -555.719)"/>
    </g>
  </g>
  <path id="Emphatise" class="cls-13" d="M222.424 696.793h-6.75v-4.066h7.9v-2.848h-11.416v17.062H223.6v-2.824h-7.921v-4.594h6.75v-2.73zm3.114-6.914v17.062h3.516v-4.664l-.352-8.039 4.594 12.7h2.414l4.6-12.714-.351 8.05v4.664h3.527v-17.059h-4.617l-4.359 12.375-4.383-12.375h-4.594zm27.5 11.051a7.152 7.152 0 0 0 4.752-1.448 4.9 4.9 0 0 0 1.717-3.955 5.575 5.575 0 0 0-.785-2.947 5.191 5.191 0 0 0-2.244-2 7.7 7.7 0 0 0-3.381-.7h-6.657v17.062h3.516v-6.012h3.082zm-3.082-8.2h3.223a2.757 2.757 0 0 1 2.039.8 2.817 2.817 0 0 1 .738 2.028 2.389 2.389 0 0 1-.732 1.875 3.093 3.093 0 0 1-2.127.656h-3.141v-5.355zm25.732-2.848h-3.516v6.914h-6.856v-6.914H261.8v17.062h3.515v-7.312h6.856v7.312h3.516v-17.065zm13.977 17.062h3.735l-6.387-17.062h-3.253l-6.352 17.062h3.739l1.172-3.515h6.164zm-4.277-12.75l2.144 6.387h-4.265zm20.927-4.312h-13.9v2.848h5.157v14.214h3.515v-14.217h5.227v-2.848zm5.622 0h-3.516v17.062h3.516v-17.065zm11.282 14.01a3.28 3.28 0 0 1-1.957.509q-3.375 0-3.375-2.824h-3.527a5.049 5.049 0 0 0 .85 2.906 5.66 5.66 0 0 0 2.466 1.975 8.705 8.705 0 0 0 3.586.721 7.335 7.335 0 0 0 4.512-1.26 4.107 4.107 0 0 0 1.676-3.475 4.458 4.458 0 0 0-1.371-3.328 10.677 10.677 0 0 0-4.371-2.238 9.453 9.453 0 0 1-2.467-1.055 1.644 1.644 0 0 1-.838-1.394 1.719 1.719 0 0 1 .715-1.436 3.242 3.242 0 0 1 2-.545 3.033 3.033 0 0 1 2.074.651 2.3 2.3 0 0 1 .738 1.822h3.516a4.895 4.895 0 0 0-.791-2.742 5.188 5.188 0 0 0-2.221-1.869 7.659 7.659 0 0 0-3.258-.662 8.428 8.428 0 0 0-3.275.609 5.08 5.08 0 0 0-2.238 1.693 4.119 4.119 0 0 0-.78 2.467q0 2.661 2.907 4.231a18.008 18.008 0 0 0 2.894 1.166 9.173 9.173 0 0 1 2.531 1.125 1.8 1.8 0 0 1 .7 1.529 1.659 1.659 0 0 1-.695 1.421zm16.755-7.1h-6.75v-4.066h7.9v-2.848H329.71v17.062h11.437v-2.824h-7.922v-4.594h6.75v-2.73z" transform="translate(-153 -555.719)"/>
  <path id="Define" class="cls-13" d="M445.425 706.941a8.025 8.025 0 0 0 4.02-1.031 7 7 0 0 0 2.759-2.871 8.906 8.906 0 0 0 .979-4.23v-.786a8.9 8.9 0 0 0-1-4.248 7.06 7.06 0 0 0-2.772-2.882 7.968 7.968 0 0 0-4.025-1.014h-5.25v17.062h5.285zm-.035-14.214a3.805 3.805 0 0 1 3.152 1.341 6.187 6.187 0 0 1 1.078 3.944v.9a6.086 6.086 0 0 1-1.113 3.856 3.817 3.817 0 0 1-3.152 1.347h-1.7v-11.39h1.734zm20.493 4.066h-6.75v-4.066h7.9v-2.848h-11.415v17.062h11.437v-2.824h-7.922v-4.594h6.75v-2.73zm13.38.34h-6.75v-4.406h7.594v-2.848H469v17.062h3.515v-6.972h6.75v-2.836zm6.5-7.254h-3.515v17.062h3.515v-17.062zm17.013 0h-3.5v11.25l-6.855-11.25H488.9v17.062h3.516v-11.226l6.843 11.226h3.516v-17.062zm13.216 6.914h-6.75v-4.066h7.9v-2.848h-11.415v17.062h11.438v-2.824h-7.922v-4.594h6.75v-2.73z" transform="translate(-153 -555.719)"/>
  <path id="Ideate" class="cls-13" d="M646.13 689.879h-3.515v17.062h3.515v-17.062zm8.423 17.062a8.025 8.025 0 0 0 4.02-1.031 7 7 0 0 0 2.759-2.871 8.906 8.906 0 0 0 .979-4.23v-.786a8.9 8.9 0 0 0-1-4.248 7.06 7.06 0 0 0-2.772-2.882 7.968 7.968 0 0 0-4.025-1.014h-5.25v17.062h5.285zm-.035-14.214a3.805 3.805 0 0 1 3.152 1.341 6.187 6.187 0 0 1 1.078 3.944v.9a6.086 6.086 0 0 1-1.113 3.856 3.817 3.817 0 0 1-3.152 1.347h-1.7v-11.39h1.734zm20.493 4.066h-6.75v-4.066h7.9v-2.848h-11.415v17.062h11.437v-2.824h-7.922v-4.594h6.75v-2.73zm13.931 10.148h3.738l-6.386-17.062h-3.258l-6.352 17.062h3.738l1.172-3.515h6.164zm-4.277-12.75l2.144 6.387h-4.265zm20.927-4.312h-13.9v2.848h5.156v14.214h3.516v-14.214h5.227v-2.848zm12.149 6.914h-6.75v-4.066h7.9v-2.848h-11.416v17.062h11.438v-2.824h-7.922v-4.594h6.75v-2.73z" transform="translate(-153 -555.719)"/>
  <path id="Prototype" class="cls-13" d="M821.1 700.93a7.148 7.148 0 0 0 4.752-1.448 4.9 4.9 0 0 0 1.717-3.955 5.575 5.575 0 0 0-.785-2.947 5.191 5.191 0 0 0-2.244-2 7.7 7.7 0 0 0-3.381-.7h-6.656v17.062h3.515v-6.012h3.082zm-3.082-8.2h3.223a2.757 2.757 0 0 1 2.039.8 2.817 2.817 0 0 1 .738 2.028 2.389 2.389 0 0 1-.732 1.875 3.093 3.093 0 0 1-2.127.656h-3.141v-5.355zm21.361 14.214h3.773v-.164l-3.691-6.972a5.155 5.155 0 0 0 2.291-1.858 5.248 5.248 0 0 0 .756-2.912 4.65 4.65 0 0 0-1.641-3.808 7.163 7.163 0 0 0-4.664-1.348h-6.34v17.062h3.516V700.7h2.8zm-6-14.214h2.824a2.848 2.848 0 0 1 2.1.691 2.578 2.578 0 0 1 .686 1.9 2.406 2.406 0 0 1-.727 1.858 2.9 2.9 0 0 1-2.05.674h-2.836v-5.121zm25.7 5.308a10.226 10.226 0 0 0-.908-4.424 6.771 6.771 0 0 0-2.566-2.941 7.525 7.525 0 0 0-7.583 0 6.764 6.764 0 0 0-2.566 2.941 10.256 10.256 0 0 0-.908 4.436v.844a10 10 0 0 0 .926 4.353 6.761 6.761 0 0 0 2.578 2.912 7.531 7.531 0 0 0 7.588-.011 6.719 6.719 0 0 0 2.549-2.93 10.312 10.312 0 0 0 .89-4.418v-.762zm-3.562.82a7.225 7.225 0 0 1-.961 4.049 3.366 3.366 0 0 1-5.485-.052 7.277 7.277 0 0 1-.961-4.055v-.832a7.1 7.1 0 0 1 .973-4.037 3.4 3.4 0 0 1 5.473.017 7.186 7.186 0 0 1 .961 4.078v.832zm17.844-8.976h-13.9v2.848h5.156v14.214h3.516v-14.217h5.226v-2.848zm15.572 8.156a10.226 10.226 0 0 0-.908-4.424 6.766 6.766 0 0 0-2.567-2.941 7.523 7.523 0 0 0-7.582 0 6.764 6.764 0 0 0-2.566 2.941 10.241 10.241 0 0 0-.908 4.436v.844a10 10 0 0 0 .925 4.353 6.769 6.769 0 0 0 2.579 2.912 7.529 7.529 0 0 0 7.587-.011 6.713 6.713 0 0 0 2.549-2.93 10.3 10.3 0 0 0 .891-4.418v-.762zm-3.563.82a7.225 7.225 0 0 1-.961 4.049 3.094 3.094 0 0 1-2.718 1.389 3.125 3.125 0 0 1-2.766-1.441 7.269 7.269 0 0 1-.961-4.055v-.832a7.1 7.1 0 0 1 .973-4.037 3.394 3.394 0 0 1 5.472.017 7.178 7.178 0 0 1 .961 4.078v.832zm17.845-8.976h-13.9v2.848h5.156v14.214h3.516v-14.217h5.226v-2.848zm4.427 0h-3.855l5.6 10.875v6.187h3.574v-6.187l5.6-10.875h-3.844l-3.551 7.687zM926.6 700.93a7.148 7.148 0 0 0 4.752-1.448 4.9 4.9 0 0 0 1.717-3.955 5.575 5.575 0 0 0-.785-2.947 5.191 5.191 0 0 0-2.244-2 7.7 7.7 0 0 0-3.381-.7H920v17.062h3.515v-6.012h3.085zm-3.082-8.2h3.223a2.757 2.757 0 0 1 2.039.8 2.817 2.817 0 0 1 .738 2.028 2.389 2.389 0 0 1-.732 1.875 3.093 3.093 0 0 1-2.127.656h-3.141v-5.355zm22.111 4.066h-6.75v-4.066h7.9v-2.848h-11.417v17.062H946.8v-2.824h-7.922v-4.594h6.75v-2.73z" transform="translate(-153 -555.719)"/>
  <path id="Test" class="cls-13" d="M1068.08 689.879h-13.89v2.848h5.15v14.214h3.52v-14.214h5.22v-2.848zm12.15 6.914h-6.75v-4.066h7.9v-2.848h-11.41v17.062h11.44v-2.824h-7.93v-4.594h6.75v-2.73zm11.26 7.1a3.274 3.274 0 0 1-1.95.509q-3.375 0-3.38-2.824h-3.53a5.1 5.1 0 0 0 .85 2.906 5.684 5.684 0 0 0 2.47 1.975 8.7 8.7 0 0 0 3.59.721 7.337 7.337 0 0 0 4.51-1.26 4.12 4.12 0 0 0 1.67-3.475 4.435 4.435 0 0 0-1.37-3.328 10.639 10.639 0 0 0-4.37-2.238 9.6 9.6 0 0 1-2.47-1.055 1.655 1.655 0 0 1-.83-1.394 1.707 1.707 0 0 1 .71-1.436 3.269 3.269 0 0 1 2.01-.545 3.019 3.019 0 0 1 2.07.651 2.308 2.308 0 0 1 .74 1.822h3.51a4.87 4.87 0 0 0-.79-2.742 5.156 5.156 0 0 0-2.22-1.869 7.655 7.655 0 0 0-3.26-.662 8.4 8.4 0 0 0-3.27.609 5.109 5.109 0 0 0-2.24 1.693 4.119 4.119 0 0 0-.78 2.467q0 2.661 2.91 4.231a17.9 17.9 0 0 0 2.89 1.166 9.178 9.178 0 0 1 2.53 1.125 1.8 1.8 0 0 1 .71 1.529 1.662 1.662 0 0 1-.71 1.42zm19.34-14.01h-13.9v2.848h5.15v14.214h3.52v-14.218h5.23v-2.848z" transform="translate(-153 -555.719)"/>
</svg>
