<?xml version="1.0" encoding="UTF-8"?>
<svg width="1285px" height="831px" viewBox="0 0 1285 831" version="1.1" xmlns="http://www.w3.org/2000/svg" xmlns:xlink="http://www.w3.org/1999/xlink">
    <!-- Generator: Sketch 61.2 (89653) - https://sketch.com -->
    <title>Group</title>
    <desc>Created with Sketch.</desc>
    <g id="Page-2" stroke="none" stroke-width="1" fill="none" fill-rule="evenodd">
        <g id="Group">
            <path d="M500.615727,831 C645.74173,831 766.40665,652.972344 908.724548,582.272564 C1094.66387,489.90281 1285,485.158623 1285,331.013087 C1285,58.8846082 835.349862,0 500.615727,0 C165.881593,0 0,138.418536 0,410.547015 C0,580.213809 173.893422,492.76165 303.579083,560.233424 C381.896183,600.979593 374.581791,831 500.615727,831 Z" id="Oval" fill-opacity="0.2" fill="#C3C4DD" opacity="0.920340402"></path>
            <g id="Illustration" transform="translate(312.000000, 151.000000)" stroke="#33313F">
                <path d="M18.36,3.86 C18.36,3.86 165.36,9.86 185.36,3.86 C185.36,3.86 174.36,249.86 178.36,257.86 C178.36,257.86 15.36,266.86 3.36,257.86 C-8.64,248.86 18.36,3.86 18.36,3.86 Z" id="Path" stroke-width="3" fill="#FFFFFF" fill-rule="nonzero"></path>
                <path d="M40.36,49.86 C40.36,49.86 108.36,157.86 131.36,167.86" id="Path" stroke-width="3" fill="#FFFFFF" fill-rule="nonzero"></path>
                <path d="M131.36,49.86 C131.36,49.86 66.36,134.86 56.36,163.86" id="Path" stroke-width="3" fill="#FFFFFF" fill-rule="nonzero"></path>
                <path d="M125.36,208.86 L46.36,208.86 C40.36,208.86 40.36,236.86 40.36,236.86 L125.36,236.86 L125.36,208.86 Z" id="Path" stroke-width="3" fill="#FFFFFF" fill-rule="nonzero"></path>
                <path d="M294.36,3.86 C294.36,3.86 435.36,-3.14 461.36,3.86 C461.36,3.86 450.36,249.86 454.36,257.86 C454.36,257.86 274.2,271.95 279.36,257.86 C290.36,227.86 294.36,3.86 294.36,3.86 Z" id="Path" stroke-width="3" fill="#FFFFFF" fill-rule="nonzero"></path>
                <path d="M349.31,22.62 C349.31,22.62 380.69,72.47 391.31,77.08" id="Path" stroke-width="3" fill="#FFFFFF" fill-rule="nonzero"></path>
                <path d="M391.31,22.62 C391.31,22.62 361.31,61.85 356.69,75.24" id="Path" stroke-width="3" fill="#FFFFFF" fill-rule="nonzero"></path>
                <path d="M427.12,108.86 L321.12,108.86 C313.12,108.86 313.12,136.86 313.12,136.86 L427.12,136.86 L427.12,108.86 Z" id="Path" stroke-width="3" fill="#FFFFFF" fill-rule="nonzero"></path>
                <path d="M412.65,197.86 L333.65,197.86 C327.65,197.86 327.65,225.86 327.65,225.86 L412.65,225.86 L412.65,197.86 Z" id="Path" stroke-width="3" fill="#FFFFFF" fill-rule="nonzero"></path>
                <path d="M427.12,149.86 C435.17,149.86 330.5,158.86 321.12,149.86 C316.18,145.13 313.12,177.86 313.12,177.86 L427.12,177.86 L427.12,149.86 Z" id="Path" stroke-width="3" fill="#FFFFFF" fill-rule="nonzero"></path>
                <polyline id="Path" stroke-width="3" fill="#FFFFFF" fill-rule="nonzero" points="359.87 211.36 365.87 217.36 376.87 202.36"></polyline>
                <path d="M563.36,5.86 C563.36,5.86 703.36,22.86 730.36,5.86 C730.36,5.86 719.36,251.86 723.36,259.86 C723.36,259.86 537.56,270.27 548.36,259.86 C575.36,233.86 563.36,5.86 563.36,5.86 Z" id="Path" stroke-width="3" fill="#FFFFFF" fill-rule="nonzero"></path>
                <path d="M582.81,49.36 C582.81,49.36 602.98,81.36 609.81,84.36" id="Path" stroke-width="3" fill="#FFFFFF" fill-rule="nonzero"></path>
                <path d="M609.81,49.36 C609.81,49.36 590.53,74.62 587.6,83.18" id="Path" stroke-width="3" fill="#FFFFFF" fill-rule="nonzero"></path>
                <path d="M698.12,115.36 L592.12,115.36 C584.12,115.36 584.12,130.18 584.12,130.18 L698.12,130.18 L698.12,115.36 Z" id="Path" stroke-width="3" fill="#FFFFFF" fill-rule="nonzero"></path>
                <path d="M640.33,159.36 L695.54,159.36 C703.54,159.36 703.54,174.18 703.54,174.18 L703.78,174.18" id="Path" stroke-width="3" fill="#FFFFFF" fill-rule="nonzero"></path>
                <path d="M698.12,137.05 C706.17,137.05 601.5,141.81 592.12,137.05 C587.18,134.55 584.12,151.86 584.12,151.86 L698.12,151.86 L698.12,137.05 Z" id="Path" stroke-width="3" fill="#FFFFFF" fill-rule="nonzero"></path>
                <path d="M564.2,24.62 C564.2,24.62 719.4,36.09 729.38,28.47" id="Path" stroke-width="3" fill="#FFFFFF" fill-rule="nonzero"></path>
                <path d="M709.85,17.53 C711.97,17.08 714.15,17.72 716.3,18.05 C718.45,18.38 720.89,18.34 722.45,16.84" id="Path" stroke-width="2" fill="#FFFFFF" fill-rule="nonzero"></path>
                <path d="M708.78,21.47 C713.260774,22.2588093 717.819613,22.5105862 722.36,22.22" id="Path" stroke-width="2" fill="#FFFFFF" fill-rule="nonzero"></path>
                <path d="M708.76,27.06 C712.602313,26.4075358 716.478536,25.9735056 720.37,25.76" id="Path" stroke-width="2" fill="#FFFFFF" fill-rule="nonzero"></path>
                <path d="M572.93,19.62 C574.807455,20.4882212 576.86279,20.9027137 578.93,20.83 C580.233137,21.008408 581.557451,20.7215914 582.67,20.02 C583.98,18.96 584.09,17.02 584.09,15.33 C584.12796,14.8166352 584.052863,14.3011919 583.87,13.82 C583.617525,13.3594384 583.248559,12.9732315 582.8,12.7 C580.33,10.98 575.74,10.28 572.85,11.45 C568.89,13.05 569.53,17.77 572.93,19.62 Z" id="Path" stroke-width="2" fill="#FFFFFF" fill-rule="nonzero"></path>
                <path d="M617.18,43.1 C616.6,50.5 618.37,57.85 619.56,65.18 C621.061428,74.4333579 621.657578,83.8110053 621.34,93.18 C605.56,94.14 589.76,94.37 573.94,93.87 C575.41,93.92 575.04,60.43 575.18,57.35 C575.36,53.41 574.52,46.63 579.09,45.15 C583.89,43.58 590.65,44.55 595.69,44.31 C602.85,43.9766667 610.013333,43.5733333 617.18,43.1 Z" id="Path" stroke-width="3" fill="#FFFFFF" fill-rule="nonzero"></path>
                <path d="M208.36,118.86 C208.36,118.86 247.36,116.86 254.36,118.86" id="Path" stroke-width="3"></path>
                <path d="M254.36,97.86 C254.36,97.86 271.36,114.86 271.36,118.86 C271.36,122.86 249.36,136.86 249.36,136.86" id="Path" stroke-width="3"></path>
                <path d="M478.36,118.86 C478.36,118.86 517.36,116.86 524.36,118.86" id="Path" stroke-width="3"></path>
                <path d="M524.36,97.86 C524.36,97.86 541.36,114.86 541.36,118.86 C541.36,122.86 519.36,136.86 519.36,136.86" id="Path" stroke-width="3"></path>
            </g>
            <g id="Group-5" transform="translate(0.000000, 284.000000)">
                <g id="Group-3" transform="translate(11.507576, 180.000000)">
                    <path d="M87.2816839,102.926128 C111.271032,109.635979 131.968316,112.990904 149.373537,112.990904 C166.778758,112.990904 182.945532,107.824378 197.873859,97.4913279 C174.3981,90.6042774 155.064766,87.1607522 139.873859,87.1607522 C124.682951,87.1607522 107.152226,92.4158776 87.2816839,102.926128 Z" id="Skirt-Shadow" fill="#D1E3E9"></path>
                    <path d="M170.140694,122.662382 C169.90938,122.314639 169.714034,121.936366 169.55909,121.526606 C166.352495,113.046543 114.990744,21.5635879 109.873859,4.8380543 L167.699946,4.8380543 C171.590386,17.5547137 189.100877,97.3578139 191.565179,113.279709 C199.340507,138.394773 215.349129,219.733299 217.392762,225.368183 C219.542628,231.295986 207.446043,237.471224 204.222588,230.183726 C199.093526,218.588085 186.872507,186.503156 181.430994,166.912322 C176.329587,148.545957 172.175679,132.022555 170.140694,122.662382 Z" id="Leg" fill="#DDB59C"></path>
                    <path d="M7.56365139,152.178588 C1.50032136,153.909715 -3.81605889,141.411833 3.6785445,138.70458 C15.6037239,134.396884 48.4629908,124.443766 68.3856831,120.382096 C84.4102904,117.115134 99.0329412,114.449297 108.850204,112.888213 C108.018508,85.3114946 104.216614,19.1315998 106.708546,4.8380543 L157.873859,4.8380543 C155.484264,18.5446034 135.283971,118.555768 131.529459,128.566603 C130.33796,132.140538 126.782778,133.719954 122.830921,133.83165 C99.3491722,139.766528 13.4578875,150.495738 7.56365139,152.178588 Z" id="Leg" fill="#DDB59C"></path>
                    <g id="Accessories/Shoe/Flat-Sneaker" transform="translate(197.873859, 203.838054)" fill="#E4E4E4">
                        <path d="M2.67813181,25.4019242 C1.55937727,28.3884109 1,30.6229931 1,32.1056708 C1,33.908957 1.3004142,36.5404001 1.90124261,40 C3.99318117,40 22.7937852,40 58.3030548,40 C59.768738,35.1545073 58.9226607,32.5385816 55.7648228,32.1522232 C52.606985,31.7658647 49.9837155,31.4170139 47.8950143,31.1056708 L21.6799926,19.4188835 C21.1755635,19.1940064 20.584344,19.4206282 20.359467,19.9250573 C20.35562,19.9336867 20.3518954,19.9423702 20.3482945,19.9511052 L18.6632131,24.038695 L18.6632131,24.038695 C15.7398812,25.4026522 13.3643706,26.0846307 11.5366811,26.0846307 C10.0517269,26.0846307 8.00099246,25.4849054 5.38447792,24.2854549 L5.38448339,24.285443 C4.38038273,23.8251478 3.19325534,24.2659892 2.73296014,25.2700899 C2.71312074,25.3133681 2.69483298,25.3573409 2.67813181,25.4019242 Z" id="shoe"></path>
                    </g>
                    <path d="M106.873859,4.8380543 C129.420698,-1.61268477 150.754032,-1.61268477 170.873859,4.8380543 C177.873859,36.7755225 194.882799,49.4515284 197.873859,98.41698 C163.873859,115.310778 121.873859,86.3685114 86.8738588,102.843365 C76.8738588,79.7991616 90.8738588,24.3025724 106.873859,4.8380543 Z" id="Skirt" fill="#BAD2EA"></path>
                </g>
                <g id="Accessories/Shoe/Flat-Sneaker" transform="translate(25.500000, 342.000000) rotate(80.000000) translate(-25.500000, -342.000000) translate(-5.000000, 322.000000)" fill="#E4E4E4">
                    <path d="M2.67813181,25.4019242 C1.55937727,28.3884109 1,30.6229931 1,32.1056708 C1,33.908957 1.3004142,36.5404001 1.90124261,40 C3.99318117,40 22.7937852,40 58.3030548,40 C59.768738,35.1545073 58.9226607,32.5385816 55.7648228,32.1522232 C52.606985,31.7658647 49.9837155,31.4170139 47.8950143,31.1056708 L21.6799926,19.4188835 C21.1755635,19.1940064 20.584344,19.4206282 20.359467,19.9250573 C20.35562,19.9336867 20.3518954,19.9423702 20.3482945,19.9511052 L18.6632131,24.038695 L18.6632131,24.038695 C15.7398812,25.4026522 13.3643706,26.0846307 11.5366811,26.0846307 C10.0517269,26.0846307 8.00099246,25.4849054 5.38447792,24.2854549 L5.38448339,24.285443 C4.38038273,23.8251478 3.19325534,24.2659892 2.73296014,25.2700899 C2.71312074,25.3133681 2.69483298,25.3573409 2.67813181,25.4019242 Z" id="shoe"></path>
                </g>
                <g id="Group-4" transform="translate(123.507576, 0.000000)">
                    <path d="M37.5,-1.63424829e-13 C48.8146813,-1.65503302e-13 58.0879767,8.74021226 58.9366703,19.8374209 C62.3568567,34.3021252 66.6243977,65.0998144 62.1172687,70 L33.1172687,70 C33.0001451,67.7356184 32.9735619,65.698936 33.0250086,63.8576382 C22.3166018,62.6317187 14,53.5370826 14,42.5 L14,21.5 C14,9.62587788 23.6258779,-1.61243588e-13 35.5,-1.63424829e-13 L37.5,-1.63424829e-13 Z" id="Hair-Back" fill="#191847"></path>
                    <g id="Head" transform="translate(17.000000, 4.000000)" fill="#DDB59C">
                        <path d="M38.1433414,9.13393292 C43.9381521,19.9350547 43.249578,47.3329958 35.7603014,49.2634576 C32.773664,50.0333035 26.4113241,48.1475566 19.935865,44.2446031 L24,73 L0,73 L8.26160177,34.4893378 C3.65406109,29.0807313 0.535660132,22.452516 1.05677633,15.0254539 C2.55833022,-6.37502057 32.3485306,-1.66718886 38.1433414,9.13393292 Z"></path>
                    </g>
                    <path d="M36.0014183,1 C47.581449,1 51.2365853,6.38832225 54.3486809,10.9630857 C52.0214598,18.9483908 42.9899431,20.1322506 34.9650913,25.1099145 C34.0199697,24.3410485 32.8137784,23.8804131 31.5,23.8804131 C28.4624339,23.8804131 26,26.3428469 26,29.3804131 C26,32.4179792 28.4624339,34.8804131 31.5,34.8804131 L31.5171616,34.8803953 C32.9010038,48.818321 32.6251694,65.9022344 29.1172687,69.767516 L0.117268734,69.767516 C-1.49852508,38.107425 14.1172687,50.3676294 14.1172687,20.5588317 L14.3938999,20.2528679 C15.2704622,19.2801834 16.1061275,18.3272171 16.9339803,17.4956352 L16.888877,16.4207004 C21.9105508,6.14023348 28.2813979,1 36.0014183,1 Z" id="Hair-Front" fill="#191847"></path>
                </g>
                <g id="Group-2" transform="translate(157.507576, 163.000000) rotate(3.000000) translate(-157.507576, -163.000000) translate(38.507576, 72.000000)">
                    <path d="M49.8070337,74.4496834 L71.7044255,74.5318631 C47.6933411,128.56567 35.1735892,156.856914 34.1451699,159.405597 C31.8312263,165.140133 36.727842,173.873732 38.8218292,178.567103 C32.0017827,181.61887 32.7284659,170.316929 24.1251607,174.319492 C16.2724627,177.972846 10.2989349,184.59248 1.226277,178.994371 C0.110847029,178.306117 -1.1114825,175.714714 1.84182017,173.68967 C9.19957413,168.644547 19.8025433,159.814672 21.2351715,156.908251 C23.1888158,152.944826 32.7127699,125.458637 49.8070337,74.4496834 L49.8070337,74.4496834 Z M235.530396,55.3151968 C231.106353,59.00334 226.617538,63.0831966 227.405768,65.0514942 C228.193999,67.0197919 232.308302,66.2874533 232.98988,69.3148625 C233.444265,71.3331352 226.767001,71.6610844 212.958087,70.2987101 L180.921116,83 L173.837242,65.3107899 L213.320118,59.9251648 C221.218295,55.5320264 228.484234,52.5579486 235.117937,51.0029313 C236.98473,50.9484265 239.954438,51.6270536 235.530396,55.3151968 Z" id="Skin" fill="#D4A181"></path>
                    <path d="M105.31081,9.66927317 L122.490056,9.31280705 C130.025895,47.0006412 155.040988,69.0336905 205.627706,56.4079457 L216.730591,104.819132 C169.326315,115.210412 125.597747,99.6935282 112.43302,48.4746485 C109.025088,35.2156986 106.038621,21.3681777 105.31081,9.66927317 Z" id="Clothes-Back" fill="#C5CFD6" transform="translate(161.020700, 58.591470) rotate(5.000000) translate(-161.020700, -58.591470) "></path>
                    <path d="M101.314396,0 L101.327877,0.016 L127.304846,5.96527657 C127.304846,50.1976331 141.254042,78.578721 148.616184,111.015796 L148.837242,112 L78.6808884,112.000086 C77.6926182,123.350958 77.0857297,135.017596 76.7694822,147 L76.7694822,147 L24.2388775,147 C36.1426071,83.6639633 61.267353,34.6639633 99.6131153,0 L99.6131153,0 L101.314396,0 Z" id="Clothes" fill="#DDE3E9"></path>
                </g>
            </g>
        </g>
    </g>
</svg>