<?xml version="1.0" encoding="UTF-8"?>
<svg width="1155px" height="776px" viewBox="0 0 1155 776" version="1.1" xmlns="http://www.w3.org/2000/svg" xmlns:xlink="http://www.w3.org/1999/xlink">
    <!-- Generator: Sketch 61.2 (89653) - https://sketch.com -->
    <title>Group 8</title>
    <desc>Created with Sketch.</desc>
    <g id="Page-2" stroke="none" stroke-width="1" fill="none" fill-rule="evenodd">
        <g id="Group-8">
            <g id="Group-7">
                <path d="M449.969778,776 C580.413773,776 688.871347,609.755161 816.791325,543.734669 C983.919665,457.478436 1155,453.048245 1155,309.10488 C1155,54.9873116 750.839759,0 449.969778,0 C149.099797,0 0,129.257261 0,383.37483 C0,541.812173 156.301092,460.148063 272.866802,523.154197 C343.260771,561.203567 336.686357,776 449.969778,776 Z" id="Oval" fill-opacity="0.2" fill="#C3C4DD" opacity="0.920340402"></path>
                <g id="Illustration" transform="translate(390.000000, 162.000000)" stroke="#33313F">
                    <path d="M13.379432,3 C13.379432,3 122.195142,7.44186047 137,3 C137,3 128.857328,185.116279 131.8183,191.03876 C131.8183,191.03876 11.1587032,197.70155 2.27578816,191.03876 C-6.60712691,184.375969 13.379432,3 13.379432,3 Z" id="Path" stroke-width="3" fill="#FFFFFF" fill-rule="nonzero"></path>
                    <path d="M30,37 C30,37 80.0659341,116.627119 97,124" id="Path" stroke-width="3" fill="#FFFFFF" fill-rule="nonzero"></path>
                    <path d="M97,37 C97,37 48.4666667,99.6315789 41,121" id="Path" stroke-width="3" fill="#FFFFFF" fill-rule="nonzero"></path>
                    <path d="M93,154 L34.4470588,154 C30,154 30,175 30,175 L93,175 L93,154 Z" id="Path" stroke-width="3" fill="#FFFFFF" fill-rule="nonzero"></path>
                    <path d="M218.200356,2.30344758 C218.200356,2.30344758 322.725804,-2.87930947 342,2.30344758 C342,2.30344758 333.845532,184.440338 336.810793,190.363489 C336.810793,190.363489 203.255441,200.795639 207.080627,190.363489 C215.235095,168.151673 218.200356,2.30344758 218.200356,2.30344758 Z" id="Path" stroke-width="3" fill="#FFFFFF" fill-rule="nonzero"></path>
                    <path d="M259,17 C259,17 282.161429,53.6140286 290,57" id="Path" stroke-width="3" fill="#FFFFFF" fill-rule="nonzero"></path>
                    <path d="M290,17 C290,17 267.469671,46.0758267 264,56" id="Path" stroke-width="3" fill="#FFFFFF" fill-rule="nonzero"></path>
                    <path d="M316,80 L237.894737,80 C232,80 232,101 232,101 L316,101 L316,80 Z" id="Path" stroke-width="3" fill="#FFFFFF" fill-rule="nonzero"></path>
                    <path d="M305,146 L246.447059,146 C242,146 242,167 242,167 L305,167 L305,146 Z" id="Path" stroke-width="3" fill="#FFFFFF" fill-rule="nonzero"></path>
                    <path d="M316.672344,111.344781 C322.651399,111.344781 244.908819,117.983959 237.941919,111.344781 C234.272784,107.855524 232,132 232,132 L316.672344,132 L316.672344,111.344781 Z" id="Path" stroke-width="3" fill="#FFFFFF" fill-rule="nonzero"></path>
                    <polyline id="Path" stroke-width="3" fill="#FFFFFF" fill-rule="nonzero" points="266 156.6 270.588235 161 279 150"></polyline>
                    <path d="M417.434083,4 C417.434083,4 521.022277,16.5547765 541,4 C541,4 532.860928,185.675001 535.82059,191.583131 C535.82059,191.583131 398.344258,199.271086 406.335348,191.583131 C426.313071,172.381709 417.434083,4 417.434083,4 Z" id="Path" stroke-width="3" fill="#FFFFFF" fill-rule="nonzero"></path>
                    <path d="M431,36 C431,36 445.940741,59.7714286 451,62" id="Path" stroke-width="3" fill="#FFFFFF" fill-rule="nonzero"></path>
                    <path d="M451,37 C451,37 437.110761,55.6723832 435,62" id="Path" stroke-width="3" fill="#FFFFFF" fill-rule="nonzero"></path>
                    <path d="M516,85 L437.894737,85 C432,85 432,96 432,96 L516,96 L516,85 Z" id="Path" stroke-width="3" fill="#FFFFFF" fill-rule="nonzero"></path>
                    <path d="M474,118 L514.896296,118 C520.822222,118 520.822222,129 520.822222,129 L521,129" id="Path" stroke-width="3" fill="#FFFFFF" fill-rule="nonzero"></path>
                    <path d="M516.672344,101.180368 C522.651399,101.180368 444.908819,104.657846 437.941919,101.180368 C434.272784,99.3539617 432,112 432,112 L516.672344,112 L516.672344,101.180368 Z" id="Path" stroke-width="3" fill="#FFFFFF" fill-rule="nonzero"></path>
                    <path d="M418,18 C418,18 532.62889,26.8733963 540,20.9784286" id="Path" stroke-width="3" fill="#FFFFFF" fill-rule="nonzero"></path>
                    <path d="M526,12.5008074 C527.514286,12.1741939 529.071429,12.6387109 530.607143,12.8782275 C532.142857,13.1177441 533.885714,13.0887118 535,12" id="Path" stroke-width="2" fill="#FFFFFF" fill-rule="nonzero"></path>
                    <path d="M525,16.066565 C528.299539,16.8553744 531.656564,17.1071512 535,16.816565" id="Path" stroke-width="2" fill="#FFFFFF" fill-rule="nonzero"></path>
                    <path d="M524,20 C526.978537,19.4981045 529.983361,19.1642351 533,19" id="Path" stroke-width="2" fill="#FFFFFF" fill-rule="nonzero"></path>
                    <path d="M424.008117,14.1177078 C425.351444,14.7248572 426.822044,15.0147129 428.301141,14.963864 C429.233541,15.0886252 430.181093,14.8880536 430.977127,14.3974289 C431.914437,13.6561681 431.993142,12.2995209 431.993142,11.1176994 C432.020303,10.7587021 431.96657,10.3982512 431.835731,10.0617524 C431.655084,9.73968044 431.391088,9.46960497 431.070142,9.27853343 C429.302847,8.07573286 426.018683,7.586221 423.950877,8.40440511 C421.117481,9.52328936 421.575403,12.8239979 424.008117,14.1177078 Z" id="Path" stroke-width="2" fill="#FFFFFF" fill-rule="nonzero"></path>
                    <path d="M456.872575,32 C456.445052,37.5108243 457.749734,42.9844133 458.626893,48.4431081 C459.733609,55.3341391 460.173036,62.3177292 459.938947,69.2948756 C448.307373,70.0097934 436.661058,70.1810758 425,69.8087228 C426.08355,69.8459581 425.810819,44.9057547 425.914015,42.6120603 C426.046694,39.6779187 425.427523,34.6288121 428.796109,33.5266473 C432.33423,32.3574589 437.317084,33.0798237 441.032112,32.9010942 C446.309809,32.6528589 451.589963,32.3524942 456.872575,32 Z" id="Path" stroke-width="3" fill="#FFFFFF" fill-rule="nonzero"></path>
                    <path d="M154,87.9444444 C154,87.9444444 182.826087,85.9444444 188,87.9444444" id="Path" stroke-width="3"></path>
                    <path d="M188.636364,72 C188.636364,72 201,84.6410256 201,87.6153846 C201,90.5897436 185,101 185,101" id="Path" stroke-width="3"></path>
                    <path d="M354,87.9444444 C354,87.9444444 382.826087,85.9444444 388,87.9444444" id="Path" stroke-width="3"></path>
                    <path d="M388.636364,72 C388.636364,72 401,84.6410256 401,87.6153846 C401,90.5897436 385,101 385,101" id="Path" stroke-width="3"></path>
                </g>
            </g>
            <g id="Group-5" transform="translate(43.000000, 245.000000)">
                <g id="Group-3" transform="translate(11.507576, 180.000000)">
                    <path d="M87.2816839,102.926128 C111.271032,109.635979 131.968316,112.990904 149.373537,112.990904 C166.778758,112.990904 182.945532,107.824378 197.873859,97.4913279 C174.3981,90.6042774 155.064766,87.1607522 139.873859,87.1607522 C124.682951,87.1607522 107.152226,92.4158776 87.2816839,102.926128 Z" id="Skirt-Shadow" fill="#D1E3E9"></path>
                    <path d="M170.140694,122.662382 C169.90938,122.314639 169.714034,121.936366 169.55909,121.526606 C166.352495,113.046543 114.990744,21.5635879 109.873859,4.8380543 L167.699946,4.8380543 C171.590386,17.5547137 189.100877,97.3578139 191.565179,113.279709 C199.340507,138.394773 215.349129,219.733299 217.392762,225.368183 C219.542628,231.295986 207.446043,237.471224 204.222588,230.183726 C199.093526,218.588085 186.872507,186.503156 181.430994,166.912322 C176.329587,148.545957 172.175679,132.022555 170.140694,122.662382 Z" id="Leg" fill="#DDB59C"></path>
                    <path d="M7.56365139,152.178588 C1.50032136,153.909715 -3.81605889,141.411833 3.6785445,138.70458 C15.6037239,134.396884 48.4629908,124.443766 68.3856831,120.382096 C84.4102904,117.115134 99.0329412,114.449297 108.850204,112.888213 C108.018508,85.3114946 104.216614,19.1315998 106.708546,4.8380543 L157.873859,4.8380543 C155.484264,18.5446034 135.283971,118.555768 131.529459,128.566603 C130.33796,132.140538 126.782778,133.719954 122.830921,133.83165 C99.3491722,139.766528 13.4578875,150.495738 7.56365139,152.178588 Z" id="Leg" fill="#DDB59C"></path>
                    <g id="Accessories/Shoe/Flat-Sneaker" transform="translate(197.873859, 203.838054)" fill="#E4E4E4">
                        <path d="M2.67813181,25.4019242 C1.55937727,28.3884109 1,30.6229931 1,32.1056708 C1,33.908957 1.3004142,36.5404001 1.90124261,40 C3.99318117,40 22.7937852,40 58.3030548,40 C59.768738,35.1545073 58.9226607,32.5385816 55.7648228,32.1522232 C52.606985,31.7658647 49.9837155,31.4170139 47.8950143,31.1056708 L21.6799926,19.4188835 C21.1755635,19.1940064 20.584344,19.4206282 20.359467,19.9250573 C20.35562,19.9336867 20.3518954,19.9423702 20.3482945,19.9511052 L18.6632131,24.038695 L18.6632131,24.038695 C15.7398812,25.4026522 13.3643706,26.0846307 11.5366811,26.0846307 C10.0517269,26.0846307 8.00099246,25.4849054 5.38447792,24.2854549 L5.38448339,24.285443 C4.38038273,23.8251478 3.19325534,24.2659892 2.73296014,25.2700899 C2.71312074,25.3133681 2.69483298,25.3573409 2.67813181,25.4019242 Z" id="shoe"></path>
                    </g>
                    <path d="M106.873859,4.8380543 C129.420698,-1.61268477 150.754032,-1.61268477 170.873859,4.8380543 C177.873859,36.7755225 194.882799,49.4515284 197.873859,98.41698 C163.873859,115.310778 121.873859,86.3685114 86.8738588,102.843365 C76.8738588,79.7991616 90.8738588,24.3025724 106.873859,4.8380543 Z" id="Skirt" fill="#BAD2EA"></path>
                </g>
                <g id="Accessories/Shoe/Flat-Sneaker" transform="translate(25.500000, 342.000000) rotate(80.000000) translate(-25.500000, -342.000000) translate(-5.000000, 322.000000)" fill="#E4E4E4">
                    <path d="M2.67813181,25.4019242 C1.55937727,28.3884109 1,30.6229931 1,32.1056708 C1,33.908957 1.3004142,36.5404001 1.90124261,40 C3.99318117,40 22.7937852,40 58.3030548,40 C59.768738,35.1545073 58.9226607,32.5385816 55.7648228,32.1522232 C52.606985,31.7658647 49.9837155,31.4170139 47.8950143,31.1056708 L21.6799926,19.4188835 C21.1755635,19.1940064 20.584344,19.4206282 20.359467,19.9250573 C20.35562,19.9336867 20.3518954,19.9423702 20.3482945,19.9511052 L18.6632131,24.038695 L18.6632131,24.038695 C15.7398812,25.4026522 13.3643706,26.0846307 11.5366811,26.0846307 C10.0517269,26.0846307 8.00099246,25.4849054 5.38447792,24.2854549 L5.38448339,24.285443 C4.38038273,23.8251478 3.19325534,24.2659892 2.73296014,25.2700899 C2.71312074,25.3133681 2.69483298,25.3573409 2.67813181,25.4019242 Z" id="shoe"></path>
                </g>
                <g id="Group-4" transform="translate(123.507576, 0.000000)">
                    <path d="M37.5,-1.63424829e-13 C48.8146813,-1.65503302e-13 58.0879767,8.74021226 58.9366703,19.8374209 C62.3568567,34.3021252 66.6243977,65.0998144 62.1172687,70 L33.1172687,70 C33.0001451,67.7356184 32.9735619,65.698936 33.0250086,63.8576382 C22.3166018,62.6317187 14,53.5370826 14,42.5 L14,21.5 C14,9.62587788 23.6258779,-1.61243588e-13 35.5,-1.63424829e-13 L37.5,-1.63424829e-13 Z" id="Hair-Back" fill="#191847"></path>
                    <g id="Head" transform="translate(17.000000, 4.000000)" fill="#DDB59C">
                        <path d="M38.1433414,9.13393292 C43.9381521,19.9350547 43.249578,47.3329958 35.7603014,49.2634576 C32.773664,50.0333035 26.4113241,48.1475566 19.935865,44.2446031 L24,73 L0,73 L8.26160177,34.4893378 C3.65406109,29.0807313 0.535660132,22.452516 1.05677633,15.0254539 C2.55833022,-6.37502057 32.3485306,-1.66718886 38.1433414,9.13393292 Z"></path>
                    </g>
                    <path d="M36.0014183,1 C47.581449,1 51.2365853,6.38832225 54.3486809,10.9630857 C52.0214598,18.9483908 42.9899431,20.1322506 34.9650913,25.1099145 C34.0199697,24.3410485 32.8137784,23.8804131 31.5,23.8804131 C28.4624339,23.8804131 26,26.3428469 26,29.3804131 C26,32.4179792 28.4624339,34.8804131 31.5,34.8804131 L31.5171616,34.8803953 C32.9010038,48.818321 32.6251694,65.9022344 29.1172687,69.767516 L0.117268734,69.767516 C-1.49852508,38.107425 14.1172687,50.3676294 14.1172687,20.5588317 L14.3938999,20.2528679 C15.2704622,19.2801834 16.1061275,18.3272171 16.9339803,17.4956352 L16.888877,16.4207004 C21.9105508,6.14023348 28.2813979,1 36.0014183,1 Z" id="Hair-Front" fill="#191847"></path>
                </g>
                <g id="Group-2" transform="translate(157.507576, 163.000000) rotate(3.000000) translate(-157.507576, -163.000000) translate(38.507576, 72.000000)">
                    <path d="M49.8070337,74.4496834 L71.7044255,74.5318631 C47.6933411,128.56567 35.1735892,156.856914 34.1451699,159.405597 C31.8312263,165.140133 36.727842,173.873732 38.8218292,178.567103 C32.0017827,181.61887 32.7284659,170.316929 24.1251607,174.319492 C16.2724627,177.972846 10.2989349,184.59248 1.226277,178.994371 C0.110847029,178.306117 -1.1114825,175.714714 1.84182017,173.68967 C9.19957413,168.644547 19.8025433,159.814672 21.2351715,156.908251 C23.1888158,152.944826 32.7127699,125.458637 49.8070337,74.4496834 L49.8070337,74.4496834 Z M235.530396,55.3151968 C231.106353,59.00334 226.617538,63.0831966 227.405768,65.0514942 C228.193999,67.0197919 232.308302,66.2874533 232.98988,69.3148625 C233.444265,71.3331352 226.767001,71.6610844 212.958087,70.2987101 L180.921116,83 L173.837242,65.3107899 L213.320118,59.9251648 C221.218295,55.5320264 228.484234,52.5579486 235.117937,51.0029313 C236.98473,50.9484265 239.954438,51.6270536 235.530396,55.3151968 Z" id="Skin" fill="#D4A181"></path>
                    <path d="M105.31081,9.66927317 L122.490056,9.31280705 C130.025895,47.0006412 155.040988,69.0336905 205.627706,56.4079457 L216.730591,104.819132 C169.326315,115.210412 125.597747,99.6935282 112.43302,48.4746485 C109.025088,35.2156986 106.038621,21.3681777 105.31081,9.66927317 Z" id="Clothes-Back" fill="#C5CFD6" transform="translate(161.020700, 58.591470) rotate(5.000000) translate(-161.020700, -58.591470) "></path>
                    <path d="M101.314396,0 L101.327877,0.016 L127.304846,5.96527657 C127.304846,50.1976331 141.254042,78.578721 148.616184,111.015796 L148.837242,112 L78.6808884,112.000086 C77.6926182,123.350958 77.0857297,135.017596 76.7694822,147 L76.7694822,147 L24.2388775,147 C36.1426071,83.6639633 61.267353,34.6639633 99.6131153,0 L99.6131153,0 L101.314396,0 Z" id="Clothes" fill="#DDE3E9"></path>
                </g>
            </g>
        </g>
    </g>
</svg>