<?xml version="1.0" encoding="UTF-8"?>
<svg width="3200px" height="2400px" viewBox="0 0 3200 2400" version="1.1" xmlns="http://www.w3.org/2000/svg" xmlns:xlink="http://www.w3.org/1999/xlink">
    <!-- Generator: Sketch 60.1 (88133) - https://sketch.com -->
    <title>Group 5</title>
    <desc>Created with Sketch.</desc>
    <defs>
        <linearGradient x1="100%" y1="21.875%" x2="-25.4874379%" y2="91.9488076%" id="linearGradient-1">
            <stop stop-color="#ADCCE7" offset="0%"></stop>
            <stop stop-color="#EFEFEF" offset="100%"></stop>
        </linearGradient>
        <linearGradient x1="50%" y1="0%" x2="50%" y2="100%" id="linearGradient-2">
            <stop stop-color="#ABB2C4" stop-opacity="0.23864923" offset="0%"></stop>
            <stop stop-color="#737A91" stop-opacity="0.331634964" offset="100%"></stop>
        </linearGradient>
        <filter x="-15.9%" y="-8.8%" width="131.9%" height="117.7%" filterUnits="objectBoundingBox" id="filter-3">
            <feGaussianBlur stdDeviation="50" in="SourceGraphic"></feGaussianBlur>
        </filter>
        <linearGradient x1="37.4869647%" y1="0%" x2="62.5130353%" y2="100%" id="linearGradient-4">
            <stop stop-color="#FFFFFF" offset="0%"></stop>
            <stop stop-color="#FEFEFE" offset="100%"></stop>
        </linearGradient>
        <path d="M721.922511,0.645386537 C766.498448,0.645386537 782.66276,5.28666709 798.959056,14.0020217 C815.255352,22.7173764 828.044781,35.5068051 836.760136,51.8031014 C845.47549,68.0993977 850.116771,84.2637095 850.116771,128.839647 L850.116771,1571.79884 C850.116771,1616.37477 845.47549,1632.53909 836.760136,1648.83538 C828.044781,1665.13168 815.255352,1677.92111 798.959056,1686.63646 C782.66276,1695.35182 766.498448,1699.9931 721.922511,1699.9931 L150.192321,1699.9931 C105.616384,1699.9931 89.4520722,1695.35182 73.155776,1686.63646 C56.8594797,1677.92111 44.070051,1665.13168 35.3546963,1648.83538 C26.6393417,1632.53909 21.9980611,1616.37477 21.9980611,1571.79884 L21.998,635.339387 L7,635.339596 C3.13400675,635.339596 -1.1321339e-13,632.20559 -1.13686838e-13,628.339596 L-1.13686838e-13,519.95446 C-1.14160285e-13,516.088467 3.13400675,512.95446 7,512.95446 L21.998,512.954387 L21.998,479.849387 L7,479.850284 C3.13400675,479.850284 -1.1321339e-13,476.716277 -1.13686838e-13,472.850284 L-1.13686838e-13,364.465148 C-1.14160285e-13,360.599154 3.13400675,357.465148 7,357.465148 L21.998,357.464387 L21.998,298.278387 L7,298.278893 C3.13400675,298.278893 -1.05517339e-13,295.144887 -1.13686838e-13,291.278893 L-1.13686838e-13,237.064227 C-1.15048464e-13,233.198234 3.13400675,230.064227 7,230.064227 L21.998,230.063387 L21.9980611,128.839647 C21.9980611,84.2637095 26.6393417,68.0993977 35.3546963,51.8031014 C44.070051,35.5068051 56.8594797,22.7173764 73.155776,14.0020217 C89.4520722,5.28666709 105.616384,0.645386537 150.192321,0.645386537 L721.922511,0.645386537 Z" id="path-5"></path>
        <filter x="-25.7%" y="-8.6%" width="151.5%" height="125.8%" filterUnits="objectBoundingBox" id="filter-6">
            <feMorphology radius="2.8" operator="dilate" in="SourceAlpha" result="shadowSpreadOuter1"></feMorphology>
            <feOffset dx="0" dy="72" in="shadowSpreadOuter1" result="shadowOffsetOuter1"></feOffset>
            <feGaussianBlur stdDeviation="60" in="shadowOffsetOuter1" result="shadowBlurOuter1"></feGaussianBlur>
            <feComposite in="shadowBlurOuter1" in2="SourceAlpha" operator="out" result="shadowBlurOuter1"></feComposite>
            <feColorMatrix values="0 0 0 0 0   0 0 0 0 0   0 0 0 0 0  0 0 0 0.132840806 0" type="matrix" in="shadowBlurOuter1"></feColorMatrix>
        </filter>
        <rect id="path-7" x="0" y="0" width="750" height="1624" rx="85"></rect>
        <linearGradient x1="38.2321171%" y1="0%" x2="61.7678829%" y2="100%" id="linearGradient-9">
            <stop stop-color="#FFFFFF" offset="0%"></stop>
            <stop stop-color="#FEFEFE" offset="100%"></stop>
        </linearGradient>
        <circle id="path-10" cx="12" cy="12" r="12"></circle>
        <filter x="-25.0%" y="-25.0%" width="150.0%" height="150.0%" filterUnits="objectBoundingBox" id="filter-11">
            <feMorphology radius="0.5" operator="dilate" in="SourceAlpha" result="shadowSpreadOuter1"></feMorphology>
            <feOffset dx="0" dy="0" in="shadowSpreadOuter1" result="shadowOffsetOuter1"></feOffset>
            <feGaussianBlur stdDeviation="1.5" in="shadowOffsetOuter1" result="shadowBlurOuter1"></feGaussianBlur>
            <feColorMatrix values="0 0 0 0 0.490619685   0 0 0 0 0.490619685   0 0 0 0 0.490619685  0 0 0 0.25 0" type="matrix" in="shadowBlurOuter1"></feColorMatrix>
        </filter>
        <filter x="-29.2%" y="-29.2%" width="158.3%" height="158.3%" filterUnits="objectBoundingBox" id="filter-12">
            <feGaussianBlur stdDeviation="2" in="SourceAlpha" result="shadowBlurInner1"></feGaussianBlur>
            <feOffset dx="2" dy="2" in="shadowBlurInner1" result="shadowOffsetInner1"></feOffset>
            <feComposite in="shadowOffsetInner1" in2="SourceAlpha" operator="arithmetic" k2="-1" k3="1" result="shadowInnerInner1"></feComposite>
            <feColorMatrix values="0 0 0 0 0   0 0 0 0 0   0 0 0 0 0  0 0 0 0.344061368 0" type="matrix" in="shadowInnerInner1"></feColorMatrix>
        </filter>
        <circle id="path-13" cx="12" cy="12" r="9"></circle>
        <filter x="-33.3%" y="-16.7%" width="166.7%" height="166.7%" filterUnits="objectBoundingBox" id="filter-14">
            <feOffset dx="0" dy="3" in="SourceAlpha" result="shadowOffsetOuter1"></feOffset>
            <feGaussianBlur stdDeviation="1.5" in="shadowOffsetOuter1" result="shadowBlurOuter1"></feGaussianBlur>
            <feColorMatrix values="0 0 0 0 0.490619685   0 0 0 0 0.490619685   0 0 0 0 0.490619685  0 0 0 0.428838315 0" type="matrix" in="shadowBlurOuter1"></feColorMatrix>
        </filter>
        <filter x="-36.1%" y="-19.4%" width="172.2%" height="172.2%" filterUnits="objectBoundingBox" id="filter-15">
            <feGaussianBlur stdDeviation="2.5" in="SourceAlpha" result="shadowBlurInner1"></feGaussianBlur>
            <feOffset dx="-2" dy="-2" in="shadowBlurInner1" result="shadowOffsetInner1"></feOffset>
            <feComposite in="shadowOffsetInner1" in2="SourceAlpha" operator="arithmetic" k2="-1" k3="1" result="shadowInnerInner1"></feComposite>
            <feColorMatrix values="0 0 0 0 0   0 0 0 0 0   0 0 0 0 0  0 0 0 0.344061368 0" type="matrix" in="shadowInnerInner1"></feColorMatrix>
        </filter>
        <rect id="path-16" x="0" y="7" width="100" height="10" rx="5"></rect>
        <filter x="-6.0%" y="-60.0%" width="112.0%" height="220.0%" filterUnits="objectBoundingBox" id="filter-17">
            <feMorphology radius="0.5" operator="dilate" in="SourceAlpha" result="shadowSpreadOuter1"></feMorphology>
            <feOffset dx="0" dy="0" in="shadowSpreadOuter1" result="shadowOffsetOuter1"></feOffset>
            <feGaussianBlur stdDeviation="1.5" in="shadowOffsetOuter1" result="shadowBlurOuter1"></feGaussianBlur>
            <feColorMatrix values="0 0 0 0 0.490619685   0 0 0 0 0.490619685   0 0 0 0 0.490619685  0 0 0 0.25 0" type="matrix" in="shadowBlurOuter1"></feColorMatrix>
        </filter>
        <filter x="-7.0%" y="-70.0%" width="114.0%" height="240.0%" filterUnits="objectBoundingBox" id="filter-18">
            <feGaussianBlur stdDeviation="2" in="SourceAlpha" result="shadowBlurInner1"></feGaussianBlur>
            <feOffset dx="2" dy="2" in="shadowBlurInner1" result="shadowOffsetInner1"></feOffset>
            <feComposite in="shadowOffsetInner1" in2="SourceAlpha" operator="arithmetic" k2="-1" k3="1" result="shadowInnerInner1"></feComposite>
            <feColorMatrix values="0 0 0 0 0   0 0 0 0 0   0 0 0 0 0  0 0 0 0.344061368 0" type="matrix" in="shadowInnerInner1"></feColorMatrix>
        </filter>
    </defs>
    <g id="Mockup---by-Murathan-Biliktu-@murathan.co" stroke="none" stroke-width="1" fill="none" fill-rule="evenodd">
        <g id="White">
            <g id="Group-5">
                <g id="Group-4">
                    <g id="Group-3">
                        <rect id="Background" fill="url(#linearGradient-1)" x="0" y="0" width="3200" height="2400"></rect>
                        <rect id="Rectangle" fill="#D8D8D8" opacity="0.465099516" x="0" y="0" width="3200" height="2400"></rect>
                        <g id="Group-2" transform="translate(1130.000000, 350.000000)">
                            <g id="Group">
                                <rect id="shadow" fill="url(#linearGradient-2)" opacity="0.570595562" filter="url(#filter-3)" x="0" y="2" width="941" height="1696" rx="100"></rect>
                                <g id="📱-iPhone/white">
                                    <g id="iphone-white" transform="translate(39.000000, 2.000000)">
                                        <g id="body">
                                            <use fill="black" fill-opacity="1" filter="url(#filter-6)" xlink:href="#path-5"></use>
                                            <path stroke-opacity="0.04" stroke="#000000" stroke-width="2.8" d="M20.5980001,636.739406 L7,636.739596 C2.3608081,636.739596 -1.4,632.978788 -1.4,628.339596 L-1.4,519.95446 C-1.4,515.315268 2.3608081,511.55446 6.99999314,511.55446 L20.598,511.554393 L20.598,481.24947 L7,481.250284 C2.3608081,481.250284 -1.4,477.489476 -1.4,472.850284 L-1.4,364.465148 C-1.4,359.825956 2.3608081,356.065148 6.99992895,356.065148 L20.598,356.064458 L20.598,299.678434 L7,299.678893 C2.3608081,299.678893 -1.4,295.918085 -1.4,291.278893 L-1.4,237.064227 C-1.4,232.425035 2.3608081,228.664227 6.99992153,228.664227 L20.5980008,228.663465 L20.5980611,128.839647 C20.5980611,87.9874647 24.092144,69.8936186 34.1201578,51.142863 C42.9659922,34.6025908 55.9552654,21.6133176 72.4955376,12.7674832 C91.2462932,2.7394694 109.340139,-0.754613463 150.192321,-0.754613463 L721.922511,-0.754613463 C762.774693,-0.754613463 780.868539,2.7394694 799.619294,12.7674832 C816.159567,21.6133176 829.14884,34.6025908 837.994674,51.142863 C848.022688,69.8936186 851.516771,87.9874647 851.516771,128.839647 L851.516771,1571.79884 C851.516771,1612.65102 848.022688,1630.74487 837.994674,1649.49562 C829.14884,1666.03589 816.159567,1679.02517 799.619294,1687.871 C780.868539,1697.89901 762.774693,1701.3931 721.922511,1701.3931 L150.192321,1701.3931 C109.340139,1701.3931 91.2462932,1697.89901 72.4955376,1687.871 C55.9552654,1679.02517 42.9659922,1666.03589 34.1201578,1649.49562 C24.092144,1630.74487 20.5980611,1612.65102 20.5980611,1571.79884 L20.5980001,636.739406 Z" fill="url(#linearGradient-4)" fill-rule="evenodd"></path>
                                        </g>
                                        <g id="📱Change-this-screen" transform="translate(60.000000, 36.000000)">
                                            <path d="M665,0 C711.944204,-8.62351033e-15 750,38.0557963 750,85 L750,1539 C750,1585.9442 711.944204,1624 665,1624 L85,1624 C38.0557963,1624 5.74900688e-15,1585.9442 0,1539 L0,85 C-5.74900688e-15,38.0557963 38.0557963,8.62351033e-15 85,0 L665,0 Z" id="masked-area" fill="#FF3B3B" fill-rule="evenodd"></path>
                                            <mask id="mask-8" fill="white">
                                                <use xlink:href="#path-7"></use>
                                            </mask>
                                            <use id="mask" stroke="#979797" stroke-width="1" xlink:href="#path-7"></use>
                                            <rect id="Rectangle" fill="#FFFFFF" fill-rule="evenodd" mask="url(#mask-8)" x="0" y="0" width="751" height="1624"></rect>
                                        </g>
                                        <path d="M714.80574,7 C759.381677,7 775.545989,11.6412806 791.842285,20.3566352 C808.138581,29.0719898 820.92801,41.8614185 829.643365,58.1577148 C838.358719,74.4540111 843,90.618323 843,135.19426 L843,1560.80574 C843,1605.38168 838.358719,1621.54599 829.643365,1637.84229 C820.92801,1654.13858 808.138581,1666.92801 791.842285,1675.64336 C775.545989,1684.35872 759.381677,1689 714.80574,1689 L155.19426,1689 C110.618323,1689 94.4540111,1684.35872 78.1577148,1675.64336 C61.8614185,1666.92801 49.0719898,1654.13858 40.3566352,1637.84229 C31.6412806,1621.54599 27,1605.38168 27,1560.80574 L27,135.19426 C27,90.618323 31.6412806,74.4540111 40.3566352,58.1577148 C49.0719898,41.8614185 61.8614185,29.0719898 78.1577148,20.3566352 C94.4540111,11.6412806 110.618323,7 155.19426,7 L714.80574,7 Z M725,36 L641.972711,36.0003561 C641.990825,36.3312695 642,36.6645633 642,37 L642,74 C642,95.5391052 624.539105,113 603,113 L267,113 C245.460895,113 228,95.5391052 228,74 L228,37 C228,36.6645633 228.009175,36.3312695 228.027289,36.0003561 L145,36 C98.0557963,36 60,74.0557963 60,121 L60,121 L60,1575 C60,1621.9442 98.0557963,1660 145,1660 L145,1660 L725,1660 C771.944204,1660 810,1621.9442 810,1575 L810,1575 L810,121 C810,74.0557963 771.944204,36 725,36 L725,36 Z" id="screen-frame" stroke-opacity="0.03" stroke="#000000" stroke-width="4.80000019" fill="url(#linearGradient-9)"></path>
                                        <g id="sensor-camera" opacity="0.6" transform="translate(380.000000, 54.000000)">
                                            <g id="Group" opacity="0.75" transform="translate(150.000000, 0.000000)">
                                                <g id="Oval">
                                                    <use fill="black" fill-opacity="1" filter="url(#filter-11)" xlink:href="#path-10"></use>
                                                    <use fill="#9092A5" fill-rule="evenodd" xlink:href="#path-10"></use>
                                                    <use fill="black" fill-opacity="1" filter="url(#filter-12)" xlink:href="#path-10"></use>
                                                </g>
                                                <g id="Oval">
                                                    <use fill="black" fill-opacity="1" filter="url(#filter-14)" xlink:href="#path-13"></use>
                                                    <use fill="#9092A5" fill-rule="evenodd" xlink:href="#path-13"></use>
                                                    <use fill="black" fill-opacity="1" filter="url(#filter-15)" xlink:href="#path-13"></use>
                                                </g>
                                            </g>
                                            <g id="Rectangle-2">
                                                <use fill="black" fill-opacity="1" filter="url(#filter-17)" xlink:href="#path-16"></use>
                                                <use fill="#9092A5" fill-rule="evenodd" xlink:href="#path-16"></use>
                                                <use fill="black" fill-opacity="1" filter="url(#filter-18)" xlink:href="#path-16"></use>
                                            </g>
                                        </g>
                                    </g>
                                </g>
                            </g>
                        </g>
                    </g>
                </g>
                <text id="coming-soon" font-family="AvenirNext-Bold, Avenir Next" font-size="100" font-weight="bold" fill="#696990">
                    <tspan x="1288" y="1232">coming soon</tspan>
                </text>
            </g>
        </g>
    </g>
</svg>