<svg xmlns="http://www.w3.org/2000/svg" viewBox="0 0 3115 1802" width="3115" height="1802"><defs><style type="text/css">@import url('https://fonts.googleapis.com/css?family=Roboto+Mono:400|Roboto:400,&amp;subset=cyrillic,cyrillic-ext,greek,greek-ext,latin-ext')</style></defs><rect x="0" y="0" width="3115" height="1802" fill="#ffffff"/><text x="1557.5" y="109" text-anchor="middle" font-size="64px" font-family="Roboto,sans-serif" fill="#52565f">Circles User Flow</text><text x="3070" y="1743" text-anchor="end" font-size="14px" font-family="Roboto,sans-serif" color="#52565f">29 December 2019</text><g transform="translate(45,213)"><g><g><g transform="translate(0, 1190)"><path d="M24.5 34 L110 34 L195.5 34 C197.5 34 199 35.5 199 37.5 L199 68 L199 98.5 C199 100.5 197.5 102 195.5 102 L110 102 L24.5 102 C22.5 102 21 100.5 21 98.5 L21 68 L21 37.5 C21 35.5 22.5 34 24.5 34 Z" fill="#ffffff" stroke="#4d9ef6" stroke-width="2"/><g transform="translate(36, 49)"><text font-size="14" font-family="Roboto,sans-serif" x="74" y="24" text-anchor="middle" fill="#52565f">Login Flow</text></g></g><g transform="translate(0, 578)"><path d="M24.5 34 L110 34 L195.5 34 C197.5 34 199 35.5 199 37.5 L199 68 L199 98.5 C199 100.5 197.5 102 195.5 102 L110 102 L24.5 102 C22.5 102 21 100.5 21 98.5 L21 68 L21 37.5 C21 35.5 22.5 34 24.5 34 Z" fill="#ffffff" stroke="#4d9ef6" stroke-width="2"/><g transform="translate(36, 49)"><text font-size="14" font-family="Roboto,sans-serif" x="74" y="24" text-anchor="middle" fill="#52565f">Sign Up</text></g></g><g transform="translate(330, 476)"><path d="M55 34 L110 34 L165 34 C184 34 199 49 199 68 L199 68 L199 68 C199 87 184 102 165 102 L110 102 L55 102 C36 102 21 87 21 68 L21 68 L21 68 C21 49 36 34 55 34 Z" fill="#ffffff" stroke="#4d9ef6" stroke-width="2"/><g transform="translate(40, 49)"><text font-size="14" font-family="Roboto,sans-serif" x="70" y="24" text-anchor="middle" fill="#52565f">Sign Up With Facebook</text></g></g><g transform="translate(330, 680)"><path d="M55 34 L110 34 L165 34 C184 34 199 49 199 68 L199 68 L199 68 C199 87 184 102 165 102 L110 102 L55 102 C36 102 21 87 21 68 L21 68 L21 68 C21 49 36 34 55 34 Z" fill="#ffffff" stroke="#4d9ef6" stroke-width="2"/><g transform="translate(40, 49)"><text font-size="14" font-family="Roboto,sans-serif" x="70" y="14" text-anchor="middle" fill="#52565f">Sign Up with Phone</text><text font-size="14" font-family="Roboto,sans-serif" x="70" y="34" text-anchor="middle" fill="#52565f">Number</text></g></g><g transform="translate(605, 374)"><path d="M24.5 34 L110 34 L195.5 34 C197.5 34 199 35.5 199 37.5 L199 68 L199 98.5 C199 100.5 197.5 102 195.5 102 L110 102 L24.5 102 C22.5 102 21 100.5 21 98.5 L21 68 L21 37.5 C21 35.5 22.5 34 24.5 34 Z" fill="#ffffff" stroke="#4d9ef6" stroke-width="2"/><g transform="translate(36, 49)"><text font-size="14" font-family="Roboto,sans-serif" x="74" y="14" text-anchor="middle" fill="#52565f">Terms and Services and</text><text font-size="14" font-family="Roboto,sans-serif" x="74" y="34" text-anchor="middle" fill="#52565f">Privacy Policy</text></g></g><g transform="translate(825, 306)"><path d="M65.5 44.5 L108 23 A4.340425531914893 4.340425531914893 0 0 1 112 23 L154.5 44.5 L197 66 A2.2921348314606744 2.2921348314606744 0 0 1 197 70 L154.5 91.5 L112 113 A4.340425531914893 4.340425531914893 0 0 1 108 113 L65.5 91.5 L23 70 A2.2921348314606744 2.2921348314606744 0 0 1 23 66 Z" fill="#ffffff" stroke="#4d9ef6" stroke-width="2"/><g transform="translate(65.5, 44.5)"><text font-size="14" font-family="Roboto,sans-serif" x="44.5" y="28.5" text-anchor="middle" fill="#52565f">Agree</text></g></g><g transform="translate(825, 442)"><path d="M65.5 44.5 L108 23 A4.340425531914893 4.340425531914893 0 0 1 112 23 L154.5 44.5 L197 66 A2.2921348314606744 2.2921348314606744 0 0 1 197 70 L154.5 91.5 L112 113 A4.340425531914893 4.340425531914893 0 0 1 108 113 L65.5 91.5 L23 70 A2.2921348314606744 2.2921348314606744 0 0 1 23 66 Z" fill="#ffffff" stroke="#4d9ef6" stroke-width="2"/><g transform="translate(65.5, 44.5)"><text font-size="14" font-family="Roboto,sans-serif" x="44.5" y="28.5" text-anchor="middle" fill="#52565f">Disagree</text></g></g><g transform="translate(1045, 306)"><path d="M24.5 34 L110 34 L195.5 34 C197.5 34 199 35.5 199 37.5 L199 68 L199 98.5 C199 100.5 197.5 102 195.5 102 L110 102 L24.5 102 C22.5 102 21 100.5 21 98.5 L21 68 L21 37.5 C21 35.5 22.5 34 24.5 34 Z" fill="#ffffff" stroke="#4d9ef6" stroke-width="2"/><g transform="translate(36, 49)"><text font-size="14" font-family="Roboto,sans-serif" x="74" y="24" text-anchor="middle" fill="#52565f">Edit Profile</text></g></g><g transform="translate(1265, 306)"><path d="M24.5 34 L110 34 L195.5 34 C197.5 34 199 35.5 199 37.5 L199 68 L199 98.5 C199 100.5 197.5 102 195.5 102 L110 102 L24.5 102 C22.5 102 21 100.5 21 98.5 L21 68 L21 37.5 C21 35.5 22.5 34 24.5 34 Z" fill="#ffffff" stroke="#4d9ef6" stroke-width="2"/><g transform="translate(36, 49)"><text font-size="14" font-family="Roboto,sans-serif" x="74" y="14" text-anchor="middle" fill="#52565f">Discover Preference</text><text font-size="14" font-family="Roboto,sans-serif" x="74" y="34" text-anchor="middle" fill="#52565f">Settings</text></g></g><g transform="translate(1815, 34)"><path d="M24.5 34 L110 34 L195.5 34 C197.5 34 199 35.5 199 37.5 L199 68 L199 98.5 C199 100.5 197.5 102 195.5 102 L110 102 L24.5 102 C22.5 102 21 100.5 21 98.5 L21 68 L21 37.5 C21 35.5 22.5 34 24.5 34 Z" fill="#ffffff" stroke="#4d9ef6" stroke-width="2"/><g transform="translate(36, 49)"><text font-size="14" font-family="Roboto,sans-serif" x="74" y="24" text-anchor="middle" fill="#52565f">Make a Post</text></g></g><g transform="translate(1815, 170)"><path d="M24.5 34 L110 34 L195.5 34 C197.5 34 199 35.5 199 37.5 L199 68 L199 98.5 C199 100.5 197.5 102 195.5 102 L110 102 L24.5 102 C22.5 102 21 100.5 21 98.5 L21 68 L21 37.5 C21 35.5 22.5 34 24.5 34 Z" fill="#ffffff" stroke="#4d9ef6" stroke-width="2"/><g transform="translate(36, 49)"><text font-size="14" font-family="Roboto,sans-serif" x="74" y="24" text-anchor="middle" fill="#52565f">Reply to a Post</text></g></g><g transform="translate(2035, 306)"><path d="M24.5 34 L110 34 L195.5 34 C197.5 34 199 35.5 199 37.5 L199 68 L199 98.5 C199 100.5 197.5 102 195.5 102 L110 102 L24.5 102 C22.5 102 21 100.5 21 98.5 L21 68 L21 37.5 C21 35.5 22.5 34 24.5 34 Z" fill="#ffffff" stroke="#4d9ef6" stroke-width="2"/><g transform="translate(36, 49)"><text font-size="14" font-family="Roboto,sans-serif" x="74" y="24" text-anchor="middle" fill="#52565f">Complete Match</text></g></g><g transform="translate(1485, 170)"><path d="M65.5 44.5 L108 23 A4.340425531914893 4.340425531914893 0 0 1 112 23 L154.5 44.5 L197 66 A2.2921348314606744 2.2921348314606744 0 0 1 197 70 L154.5 91.5 L112 113 A4.340425531914893 4.340425531914893 0 0 1 108 113 L65.5 91.5 L23 70 A2.2921348314606744 2.2921348314606744 0 0 1 23 66 Z" fill="#ffffff" stroke="#4d9ef6" stroke-width="2"/><g transform="translate(65.5, 44.5)"><text font-size="14" font-family="Roboto,sans-serif" x="44.5" y="18.5" text-anchor="middle" fill="#52565f">Enable</text><text font-size="14" font-family="Roboto,sans-serif" x="44.5" y="38.5" text-anchor="middle" fill="#52565f">Location</text></g></g><g transform="translate(2310, 204)"><path d="M65.5 44.5 L108 23 A4.340425531914893 4.340425531914893 0 0 1 112 23 L154.5 44.5 L197 66 A2.2921348314606744 2.2921348314606744 0 0 1 197 70 L154.5 91.5 L112 113 A4.340425531914893 4.340425531914893 0 0 1 108 113 L65.5 91.5 L23 70 A2.2921348314606744 2.2921348314606744 0 0 1 23 66 Z" fill="#ffffff" stroke="#4d9ef6" stroke-width="2"/><g transform="translate(65.5, 44.5)"><text font-size="14" font-family="Roboto,sans-serif" x="44.5" y="28.5" text-anchor="middle" fill="#52565f">Chat</text></g></g><g transform="translate(2310, 408)"><path d="M65.5 44.5 L108 23 A4.340425531914893 4.340425531914893 0 0 1 112 23 L154.5 44.5 L197 66 A2.2921348314606744 2.2921348314606744 0 0 1 197 70 L154.5 91.5 L112 113 A4.340425531914893 4.340425531914893 0 0 1 108 113 L65.5 91.5 L23 70 A2.2921348314606744 2.2921348314606744 0 0 1 23 66 Z" fill="#ffffff" stroke="#4d9ef6" stroke-width="2"/><g transform="translate(65.5, 44.5)"><text font-size="14" font-family="Roboto,sans-serif" x="44.5" y="28.5" text-anchor="middle" fill="#52565f">No Chat</text></g></g><g transform="translate(2530, 102)"><path d="M65.5 44.5 L108 23 A4.340425531914893 4.340425531914893 0 0 1 112 23 L154.5 44.5 L197 66 A2.2921348314606744 2.2921348314606744 0 0 1 197 70 L154.5 91.5 L112 113 A4.340425531914893 4.340425531914893 0 0 1 108 113 L65.5 91.5 L23 70 A2.2921348314606744 2.2921348314606744 0 0 1 23 66 Z" fill="#ffffff" stroke="#4d9ef6" stroke-width="2"/><g transform="translate(65.5, 44.5)"><text font-size="14" font-family="Roboto,sans-serif" x="44.5" y="28.5" text-anchor="middle" fill="#52565f">Meet Up</text></g></g><g transform="translate(2530, 306)"><path d="M65.5 44.5 L108 23 A4.340425531914893 4.340425531914893 0 0 1 112 23 L154.5 44.5 L197 66 A2.2921348314606744 2.2921348314606744 0 0 1 197 70 L154.5 91.5 L112 113 A4.340425531914893 4.340425531914893 0 0 1 108 113 L65.5 91.5 L23 70 A2.2921348314606744 2.2921348314606744 0 0 1 23 66 Z" fill="#ffffff" stroke="#4d9ef6" stroke-width="2"/><g transform="translate(65.5, 44.5)"><text font-size="14" font-family="Roboto,sans-serif" x="44.5" y="28.5" text-anchor="middle" fill="#52565f">No Meet Up</text></g></g><g transform="translate(2805, 0)"><path d="M24.5 34 L110 34 L195.5 34 C197.5 34 199 35.5 199 37.5 L199 68 L199 98.5 C199 100.5 197.5 102 195.5 102 L110 102 L24.5 102 C22.5 102 21 100.5 21 98.5 L21 68 L21 37.5 C21 35.5 22.5 34 24.5 34 Z" fill="#ffffff" stroke="#4d9ef6" stroke-width="2"/><g transform="translate(36, 49)"><text font-size="14" font-family="Roboto,sans-serif" x="74" y="24" text-anchor="middle" fill="#52565f">Study Buddy</text></g></g><g transform="translate(2805, 204)"><path d="M24.5 34 L110 34 L195.5 34 C197.5 34 199 35.5 199 37.5 L199 68 L199 98.5 C199 100.5 197.5 102 195.5 102 L110 102 L24.5 102 C22.5 102 21 100.5 21 98.5 L21 68 L21 37.5 C21 35.5 22.5 34 24.5 34 Z" fill="#ffffff" stroke="#4d9ef6" stroke-width="2"/><g transform="translate(36, 49)"><text font-size="14" font-family="Roboto,sans-serif" x="74" y="24" text-anchor="middle" fill="#52565f">Friend</text></g></g><g transform="translate(1815, 340)"><path d="M24.5 34 L110 34 L195.5 34 C197.5 34 199 35.5 199 37.5 L199 68 L199 98.5 C199 100.5 197.5 102 195.5 102 L110 102 L24.5 102 C22.5 102 21 100.5 21 98.5 L21 68 L21 37.5 C21 35.5 22.5 34 24.5 34 Z" fill="#ffffff" stroke="#4d9ef6" stroke-width="2"/><g transform="translate(36, 49)"><text font-size="14" font-family="Roboto,sans-serif" x="74" y="24" text-anchor="middle" fill="#52565f">Based on Profile</text></g></g><g transform="translate(605, 816)"><path d="M24.5 34 L110 34 L195.5 34 C197.5 34 199 35.5 199 37.5 L199 68 L199 98.5 C199 100.5 197.5 102 195.5 102 L110 102 L24.5 102 C22.5 102 21 100.5 21 98.5 L21 68 L21 37.5 C21 35.5 22.5 34 24.5 34 Z" fill="#ffffff" stroke="#4d9ef6" stroke-width="2"/><g transform="translate(36, 49)"><text font-size="14" font-family="Roboto,sans-serif" x="74" y="24" text-anchor="middle" fill="#52565f">Registration Process</text></g></g><g transform="translate(1485, 442)"><path d="M65.5 44.5 L108 23 A4.340425531914893 4.340425531914893 0 0 1 112 23 L154.5 44.5 L197 66 A2.2921348314606744 2.2921348314606744 0 0 1 197 70 L154.5 91.5 L112 113 A4.340425531914893 4.340425531914893 0 0 1 108 113 L65.5 91.5 L23 70 A2.2921348314606744 2.2921348314606744 0 0 1 23 66 Z" fill="#ffffff" stroke="#4d9ef6" stroke-width="2"/><g transform="translate(65.5, 44.5)"><text font-size="14" font-family="Roboto,sans-serif" x="44.5" y="18.5" text-anchor="middle" fill="#52565f">Disable</text><text font-size="14" font-family="Roboto,sans-serif" x="44.5" y="38.5" text-anchor="middle" fill="#52565f">Location</text></g></g><g transform="translate(2035, 442)"><path d="M24.5 34 L110 34 L195.5 34 C197.5 34 199 35.5 199 37.5 L199 68 L199 98.5 C199 100.5 197.5 102 195.5 102 L110 102 L24.5 102 C22.5 102 21 100.5 21 98.5 L21 68 L21 37.5 C21 35.5 22.5 34 24.5 34 Z" fill="#ffffff" stroke="#4d9ef6" stroke-width="2"/><g transform="translate(36, 49)"><text font-size="14" font-family="Roboto,sans-serif" x="74" y="24" text-anchor="middle" fill="#52565f">No Match</text></g></g><g transform="translate(330, 1054)"><path d="M55 34 L110 34 L165 34 C184 34 199 49 199 68 L199 68 L199 68 C199 87 184 102 165 102 L110 102 L55 102 C36 102 21 87 21 68 L21 68 L21 68 C21 49 36 34 55 34 Z" fill="#ffffff" stroke="#4d9ef6" stroke-width="2"/><g transform="translate(40, 49)"><text font-size="14" font-family="Roboto,sans-serif" x="70" y="24" text-anchor="middle" fill="#52565f">Login With Facebook</text></g></g><g transform="translate(330, 1360)"><path d="M55 34 L110 34 L165 34 C184 34 199 49 199 68 L199 68 L199 68 C199 87 184 102 165 102 L110 102 L55 102 C36 102 21 87 21 68 L21 68 L21 68 C21 49 36 34 55 34 Z" fill="#ffffff" stroke="#4d9ef6" stroke-width="2"/><g transform="translate(40, 49)"><text font-size="14" font-family="Roboto,sans-serif" x="70" y="14" text-anchor="middle" fill="#52565f">Login with Phone</text><text font-size="14" font-family="Roboto,sans-serif" x="70" y="34" text-anchor="middle" fill="#52565f">Number</text></g></g></g><g><g><path fill="none" stroke="#4d9ef6" stroke-width="2" stroke-dasharray="0px 0px" d="M 200,1258L 220,1258L 320,1258Q330,1258 330,1248L 330,1132Q330,1122 340,1122L 348,1122"/><path transform="translate( 202, 1255 ) rotate( 450 )" d="M3 6C4.65685 6 6 4.65685 6 3C6 1.34315 4.65685 0 3 0C1.34315 0 0 1.34315 0 3C0 4.65685 1.34315 6 3 6Z" fill="#4d9ef6"/><path transform="translate( 350, 1115 ) rotate( 450 )" d="M6.34003 0.275664C6.70452 -0.0918881 7.29548 -0.0918881 7.65997 0.275664L13.7266 6.39331C14.0911 6.76086 14.0911 7.35678 13.7266 7.72434C13.3621 8.09189 12.7712 8.09189 12.4067 7.72434L7 2.2722L1.5933 7.72434C1.22881 8.09189 0.637856 8.09189 0.273367 7.72434C-0.0911224 7.35678 -0.0911224 6.76086 0.273367 6.39331L6.34003 0.275664Z" fill="#4d9ef6"/></g><g><path fill="none" stroke="#4d9ef6" stroke-width="2" stroke-dasharray="0px 0px" d="M 200,1258L 220,1258L 320,1258Q330,1258 330,1268L 330,1418Q330,1428 340,1428L 348,1428"/><path transform="translate( 202, 1255 ) rotate( 450 )" d="M3 6C4.65685 6 6 4.65685 6 3C6 1.34315 4.65685 0 3 0C1.34315 0 0 1.34315 0 3C0 4.65685 1.34315 6 3 6Z" fill="#4d9ef6"/><path transform="translate( 350, 1421 ) rotate( 450 )" d="M6.34003 0.275664C6.70452 -0.0918881 7.29548 -0.0918881 7.65997 0.275664L13.7266 6.39331C14.0911 6.76086 14.0911 7.35678 13.7266 7.72434C13.3621 8.09189 12.7712 8.09189 12.4067 7.72434L7 2.2722L1.5933 7.72434C1.22881 8.09189 0.637856 8.09189 0.273367 7.72434C-0.0911224 7.35678 -0.0911224 6.76086 0.273367 6.39331L6.34003 0.275664Z" fill="#4d9ef6"/></g><g><path fill="none" stroke="#4d9ef6" stroke-width="2" stroke-dasharray="0px 0px" d="M 200,646L 220,646L 320,646Q330,646 330,636L 330,554Q330,544 340,544L 348,544"/><path transform="translate( 202, 643 ) rotate( 450 )" d="M3 6C4.65685 6 6 4.65685 6 3C6 1.34315 4.65685 0 3 0C1.34315 0 0 1.34315 0 3C0 4.65685 1.34315 6 3 6Z" fill="#4d9ef6"/><path transform="translate( 350, 537 ) rotate( 450 )" d="M6.34003 0.275664C6.70452 -0.0918881 7.29548 -0.0918881 7.65997 0.275664L13.7266 6.39331C14.0911 6.76086 14.0911 7.35678 13.7266 7.72434C13.3621 8.09189 12.7712 8.09189 12.4067 7.72434L7 2.2722L1.5933 7.72434C1.22881 8.09189 0.637856 8.09189 0.273367 7.72434C-0.0911224 7.35678 -0.0911224 6.76086 0.273367 6.39331L6.34003 0.275664Z" fill="#4d9ef6"/></g><g><path fill="none" stroke="#4d9ef6" stroke-width="2" stroke-dasharray="0px 0px" d="M 200,646L 220,646L 320,646Q330,646 330,656L 330,738Q330,748 340,748L 348,748"/><path transform="translate( 202, 643 ) rotate( 450 )" d="M3 6C4.65685 6 6 4.65685 6 3C6 1.34315 4.65685 0 3 0C1.34315 0 0 1.34315 0 3C0 4.65685 1.34315 6 3 6Z" fill="#4d9ef6"/><path transform="translate( 350, 741 ) rotate( 450 )" d="M6.34003 0.275664C6.70452 -0.0918881 7.29548 -0.0918881 7.65997 0.275664L13.7266 6.39331C14.0911 6.76086 14.0911 7.35678 13.7266 7.72434C13.3621 8.09189 12.7712 8.09189 12.4067 7.72434L7 2.2722L1.5933 7.72434C1.22881 8.09189 0.637856 8.09189 0.273367 7.72434C-0.0911224 7.35678 -0.0911224 6.76086 0.273367 6.39331L6.34003 0.275664Z" fill="#4d9ef6"/></g><g><path fill="none" stroke="#4d9ef6" stroke-width="2" stroke-dasharray="0px 0px" d="M 530,544L 550,544L 705,544Q715,544 715,534L 715,510L 715,479"/><path transform="translate( 532, 541 ) rotate( 450 )" d="M3 6C4.65685 6 6 4.65685 6 3C6 1.34315 4.65685 0 3 0C1.34315 0 0 1.34315 0 3C0 4.65685 1.34315 6 3 6Z" fill="#4d9ef6"/><path transform="translate( 708, 477 ) rotate( 360 )" d="M6.34003 0.275664C6.70452 -0.0918881 7.29548 -0.0918881 7.65997 0.275664L13.7266 6.39331C14.0911 6.76086 14.0911 7.35678 13.7266 7.72434C13.3621 8.09189 12.7712 8.09189 12.4067 7.72434L7 2.2722L1.5933 7.72434C1.22881 8.09189 0.637856 8.09189 0.273367 7.72434C-0.0911224 7.35678 -0.0911224 6.76086 0.273367 6.39331L6.34003 0.275664Z" fill="#4d9ef6"/></g><g><path fill="none" stroke="#4d9ef6" stroke-width="2" stroke-dasharray="0px 0px" d="M 530,748L 550,748L 595,748Q605,748 605,758L 605,874Q605,884 615,884L 623,884"/><path transform="translate( 532, 745 ) rotate( 450 )" d="M3 6C4.65685 6 6 4.65685 6 3C6 1.34315 4.65685 0 3 0C1.34315 0 0 1.34315 0 3C0 4.65685 1.34315 6 3 6Z" fill="#4d9ef6"/><path transform="translate( 625, 877 ) rotate( 450 )" d="M6.34003 0.275664C6.70452 -0.0918881 7.29548 -0.0918881 7.65997 0.275664L13.7266 6.39331C14.0911 6.76086 14.0911 7.35678 13.7266 7.72434C13.3621 8.09189 12.7712 8.09189 12.4067 7.72434L7 2.2722L1.5933 7.72434C1.22881 8.09189 0.637856 8.09189 0.273367 7.72434C-0.0911224 7.35678 -0.0911224 6.76086 0.273367 6.39331L6.34003 0.275664Z" fill="#4d9ef6"/></g><g><path fill="none" stroke="#4d9ef6" stroke-width="2" stroke-dasharray="0px 0px" d="M 805,442L 815,442Q825,442 825,432L 825,384Q825,374 835,374L 844,374"/><path transform="translate( 807, 439 ) rotate( 450 )" d="M3 6C4.65685 6 6 4.65685 6 3C6 1.34315 4.65685 0 3 0C1.34315 0 0 1.34315 0 3C0 4.65685 1.34315 6 3 6Z" fill="#4d9ef6"/><path transform="translate( 846, 367 ) rotate( 450 )" d="M6.34003 0.275664C6.70452 -0.0918881 7.29548 -0.0918881 7.65997 0.275664L13.7266 6.39331C14.0911 6.76086 14.0911 7.35678 13.7266 7.72434C13.3621 8.09189 12.7712 8.09189 12.4067 7.72434L7 2.2722L1.5933 7.72434C1.22881 8.09189 0.637856 8.09189 0.273367 7.72434C-0.0911224 7.35678 -0.0911224 6.76086 0.273367 6.39331L6.34003 0.275664Z" fill="#4d9ef6"/></g><g><path fill="none" stroke="#4d9ef6" stroke-width="2" stroke-dasharray="0px 0px" d="M 805,442L 815,442Q825,442 825,452L 825,500Q825,510 835,510L 844,510"/><path transform="translate( 807, 439 ) rotate( 450 )" d="M3 6C4.65685 6 6 4.65685 6 3C6 1.34315 4.65685 0 3 0C1.34315 0 0 1.34315 0 3C0 4.65685 1.34315 6 3 6Z" fill="#4d9ef6"/><path transform="translate( 846, 503 ) rotate( 450 )" d="M6.34003 0.275664C6.70452 -0.0918881 7.29548 -0.0918881 7.65997 0.275664L13.7266 6.39331C14.0911 6.76086 14.0911 7.35678 13.7266 7.72434C13.3621 8.09189 12.7712 8.09189 12.4067 7.72434L7 2.2722L1.5933 7.72434C1.22881 8.09189 0.637856 8.09189 0.273367 7.72434C-0.0911224 7.35678 -0.0911224 6.76086 0.273367 6.39331L6.34003 0.275664Z" fill="#4d9ef6"/></g><g><path fill="none" stroke="#4d9ef6" stroke-width="2" stroke-dasharray="0px 0px" d="M 1024,374L 1045,374L 1045,374L 1063,374"/><path transform="translate( 1026, 371 ) rotate( 450 )" d="M3 6C4.65685 6 6 4.65685 6 3C6 1.34315 4.65685 0 3 0C1.34315 0 0 1.34315 0 3C0 4.65685 1.34315 6 3 6Z" fill="#4d9ef6"/><path transform="translate( 1065, 367 ) rotate( 450 )" d="M6.34003 0.275664C6.70452 -0.0918881 7.29548 -0.0918881 7.65997 0.275664L13.7266 6.39331C14.0911 6.76086 14.0911 7.35678 13.7266 7.72434C13.3621 8.09189 12.7712 8.09189 12.4067 7.72434L7 2.2722L1.5933 7.72434C1.22881 8.09189 0.637856 8.09189 0.273367 7.72434C-0.0911224 7.35678 -0.0911224 6.76086 0.273367 6.39331L6.34003 0.275664Z" fill="#4d9ef6"/></g><g><path fill="none" stroke="#4d9ef6" stroke-width="2" stroke-dasharray="0px 0px" d="M 1245,374L 1265,374L 1265,374L 1283,374"/><path transform="translate( 1247, 371 ) rotate( 450 )" d="M3 6C4.65685 6 6 4.65685 6 3C6 1.34315 4.65685 0 3 0C1.34315 0 0 1.34315 0 3C0 4.65685 1.34315 6 3 6Z" fill="#4d9ef6"/><path transform="translate( 1285, 367 ) rotate( 450 )" d="M6.34003 0.275664C6.70452 -0.0918881 7.29548 -0.0918881 7.65997 0.275664L13.7266 6.39331C14.0911 6.76086 14.0911 7.35678 13.7266 7.72434C13.3621 8.09189 12.7712 8.09189 12.4067 7.72434L7 2.2722L1.5933 7.72434C1.22881 8.09189 0.637856 8.09189 0.273367 7.72434C-0.0911224 7.35678 -0.0911224 6.76086 0.273367 6.39331L6.34003 0.275664Z" fill="#4d9ef6"/></g><g><path fill="none" stroke="#4d9ef6" stroke-width="2" stroke-dasharray="0px 0px" d="M 1465,374L 1475,374Q1485,374 1485,364L 1485,248Q1485,238 1495,238L 1504,238"/><path transform="translate( 1467, 371 ) rotate( 450 )" d="M3 6C4.65685 6 6 4.65685 6 3C6 1.34315 4.65685 0 3 0C1.34315 0 0 1.34315 0 3C0 4.65685 1.34315 6 3 6Z" fill="#4d9ef6"/><path transform="translate( 1506, 231 ) rotate( 450 )" d="M6.34003 0.275664C6.70452 -0.0918881 7.29548 -0.0918881 7.65997 0.275664L13.7266 6.39331C14.0911 6.76086 14.0911 7.35678 13.7266 7.72434C13.3621 8.09189 12.7712 8.09189 12.4067 7.72434L7 2.2722L1.5933 7.72434C1.22881 8.09189 0.637856 8.09189 0.273367 7.72434C-0.0911224 7.35678 -0.0911224 6.76086 0.273367 6.39331L6.34003 0.275664Z" fill="#4d9ef6"/></g><g><path fill="none" stroke="#4d9ef6" stroke-width="2" stroke-dasharray="0px 0px" d="M 1465,374L 1475,374Q1485,374 1485,384L 1485,500Q1485,510 1495,510L 1504,510"/><path transform="translate( 1467, 371 ) rotate( 450 )" d="M3 6C4.65685 6 6 4.65685 6 3C6 1.34315 4.65685 0 3 0C1.34315 0 0 1.34315 0 3C0 4.65685 1.34315 6 3 6Z" fill="#4d9ef6"/><path transform="translate( 1506, 503 ) rotate( 450 )" d="M6.34003 0.275664C6.70452 -0.0918881 7.29548 -0.0918881 7.65997 0.275664L13.7266 6.39331C14.0911 6.76086 14.0911 7.35678 13.7266 7.72434C13.3621 8.09189 12.7712 8.09189 12.4067 7.72434L7 2.2722L1.5933 7.72434C1.22881 8.09189 0.637856 8.09189 0.273367 7.72434C-0.0911224 7.35678 -0.0911224 6.76086 0.273367 6.39331L6.34003 0.275664Z" fill="#4d9ef6"/></g><g><path fill="none" stroke="#4d9ef6" stroke-width="2" stroke-dasharray="0px 0px" d="M 2015,102L 2025,102Q2035,102 2035,112L 2035,364Q2035,374 2045,374L 2053,374"/><path transform="translate( 2017, 99 ) rotate( 450 )" d="M3 6C4.65685 6 6 4.65685 6 3C6 1.34315 4.65685 0 3 0C1.34315 0 0 1.34315 0 3C0 4.65685 1.34315 6 3 6Z" fill="#4d9ef6"/><path transform="translate( 2055, 367 ) rotate( 450 )" d="M6.34003 0.275664C6.70452 -0.0918881 7.29548 -0.0918881 7.65997 0.275664L13.7266 6.39331C14.0911 6.76086 14.0911 7.35678 13.7266 7.72434C13.3621 8.09189 12.7712 8.09189 12.4067 7.72434L7 2.2722L1.5933 7.72434C1.22881 8.09189 0.637856 8.09189 0.273367 7.72434C-0.0911224 7.35678 -0.0911224 6.76086 0.273367 6.39331L6.34003 0.275664Z" fill="#4d9ef6"/></g><g><path fill="none" stroke="#4d9ef6" stroke-width="2" stroke-dasharray="0px 0px" d="M 2015,238L 2025,238Q2035,238 2035,248L 2035,364Q2035,374 2045,374L 2053,374"/><path transform="translate( 2017, 235 ) rotate( 450 )" d="M3 6C4.65685 6 6 4.65685 6 3C6 1.34315 4.65685 0 3 0C1.34315 0 0 1.34315 0 3C0 4.65685 1.34315 6 3 6Z" fill="#4d9ef6"/><path transform="translate( 2055, 367 ) rotate( 450 )" d="M6.34003 0.275664C6.70452 -0.0918881 7.29548 -0.0918881 7.65997 0.275664L13.7266 6.39331C14.0911 6.76086 14.0911 7.35678 13.7266 7.72434C13.3621 8.09189 12.7712 8.09189 12.4067 7.72434L7 2.2722L1.5933 7.72434C1.22881 8.09189 0.637856 8.09189 0.273367 7.72434C-0.0911224 7.35678 -0.0911224 6.76086 0.273367 6.39331L6.34003 0.275664Z" fill="#4d9ef6"/></g><g><path fill="none" stroke="#4d9ef6" stroke-width="2" stroke-dasharray="0px 0px" d="M 2235,374L 2255,374L 2300,374Q2310,374 2310,364L 2310,282Q2310,272 2320,272L 2329,272"/><path transform="translate( 2237, 371 ) rotate( 450 )" d="M3 6C4.65685 6 6 4.65685 6 3C6 1.34315 4.65685 0 3 0C1.34315 0 0 1.34315 0 3C0 4.65685 1.34315 6 3 6Z" fill="#4d9ef6"/><path transform="translate( 2331, 265 ) rotate( 450 )" d="M6.34003 0.275664C6.70452 -0.0918881 7.29548 -0.0918881 7.65997 0.275664L13.7266 6.39331C14.0911 6.76086 14.0911 7.35678 13.7266 7.72434C13.3621 8.09189 12.7712 8.09189 12.4067 7.72434L7 2.2722L1.5933 7.72434C1.22881 8.09189 0.637856 8.09189 0.273367 7.72434C-0.0911224 7.35678 -0.0911224 6.76086 0.273367 6.39331L6.34003 0.275664Z" fill="#4d9ef6"/></g><g><path fill="none" stroke="#4d9ef6" stroke-width="2" stroke-dasharray="0px 0px" d="M 2235,374L 2255,374L 2300,374Q2310,374 2310,384L 2310,466Q2310,476 2320,476L 2329,476"/><path transform="translate( 2237, 371 ) rotate( 450 )" d="M3 6C4.65685 6 6 4.65685 6 3C6 1.34315 4.65685 0 3 0C1.34315 0 0 1.34315 0 3C0 4.65685 1.34315 6 3 6Z" fill="#4d9ef6"/><path transform="translate( 2331, 469 ) rotate( 450 )" d="M6.34003 0.275664C6.70452 -0.0918881 7.29548 -0.0918881 7.65997 0.275664L13.7266 6.39331C14.0911 6.76086 14.0911 7.35678 13.7266 7.72434C13.3621 8.09189 12.7712 8.09189 12.4067 7.72434L7 2.2722L1.5933 7.72434C1.22881 8.09189 0.637856 8.09189 0.273367 7.72434C-0.0911224 7.35678 -0.0911224 6.76086 0.273367 6.39331L6.34003 0.275664Z" fill="#4d9ef6"/></g><g><path fill="none" stroke="#4d9ef6" stroke-width="2" stroke-dasharray="0px 0px" d="M 1684,238L 1705,238L 1805,238Q1815,238 1815,228L 1815,112Q1815,102 1825,102L 1833,102"/><path transform="translate( 1686, 235 ) rotate( 450 )" d="M3 6C4.65685 6 6 4.65685 6 3C6 1.34315 4.65685 0 3 0C1.34315 0 0 1.34315 0 3C0 4.65685 1.34315 6 3 6Z" fill="#4d9ef6"/><path transform="translate( 1835, 95 ) rotate( 450 )" d="M6.34003 0.275664C6.70452 -0.0918881 7.29548 -0.0918881 7.65997 0.275664L13.7266 6.39331C14.0911 6.76086 14.0911 7.35678 13.7266 7.72434C13.3621 8.09189 12.7712 8.09189 12.4067 7.72434L7 2.2722L1.5933 7.72434C1.22881 8.09189 0.637856 8.09189 0.273367 7.72434C-0.0911224 7.35678 -0.0911224 6.76086 0.273367 6.39331L6.34003 0.275664Z" fill="#4d9ef6"/></g><g><path fill="none" stroke="#4d9ef6" stroke-width="2" stroke-dasharray="0px 0px" d="M 1684,238L 1705,238L 1805,238Q1815,238 1815,248L 1815,398Q1815,408 1825,408L 1833,408"/><path transform="translate( 1686, 235 ) rotate( 450 )" d="M3 6C4.65685 6 6 4.65685 6 3C6 1.34315 4.65685 0 3 0C1.34315 0 0 1.34315 0 3C0 4.65685 1.34315 6 3 6Z" fill="#4d9ef6"/><path transform="translate( 1835, 401 ) rotate( 450 )" d="M6.34003 0.275664C6.70452 -0.0918881 7.29548 -0.0918881 7.65997 0.275664L13.7266 6.39331C14.0911 6.76086 14.0911 7.35678 13.7266 7.72434C13.3621 8.09189 12.7712 8.09189 12.4067 7.72434L7 2.2722L1.5933 7.72434C1.22881 8.09189 0.637856 8.09189 0.273367 7.72434C-0.0911224 7.35678 -0.0911224 6.76086 0.273367 6.39331L6.34003 0.275664Z" fill="#4d9ef6"/></g><g><path fill="none" stroke="#4d9ef6" stroke-width="2" stroke-dasharray="0px 0px" d="M 1684,238L 1705,238L 1815,238L 1833,238"/><path transform="translate( 1686, 235 ) rotate( 450 )" d="M3 6C4.65685 6 6 4.65685 6 3C6 1.34315 4.65685 0 3 0C1.34315 0 0 1.34315 0 3C0 4.65685 1.34315 6 3 6Z" fill="#4d9ef6"/><path transform="translate( 1835, 231 ) rotate( 450 )" d="M6.34003 0.275664C6.70452 -0.0918881 7.29548 -0.0918881 7.65997 0.275664L13.7266 6.39331C14.0911 6.76086 14.0911 7.35678 13.7266 7.72434C13.3621 8.09189 12.7712 8.09189 12.4067 7.72434L7 2.2722L1.5933 7.72434C1.22881 8.09189 0.637856 8.09189 0.273367 7.72434C-0.0911224 7.35678 -0.0911224 6.76086 0.273367 6.39331L6.34003 0.275664Z" fill="#4d9ef6"/></g><g><path fill="none" stroke="#4d9ef6" stroke-width="2" stroke-dasharray="0px 0px" d="M 2509,272L 2520,272Q2530,272 2530,262L 2530,180Q2530,170 2540,170L 2549,170"/><path transform="translate( 2511, 269 ) rotate( 450 )" d="M3 6C4.65685 6 6 4.65685 6 3C6 1.34315 4.65685 0 3 0C1.34315 0 0 1.34315 0 3C0 4.65685 1.34315 6 3 6Z" fill="#4d9ef6"/><path transform="translate( 2551, 163 ) rotate( 450 )" d="M6.34003 0.275664C6.70452 -0.0918881 7.29548 -0.0918881 7.65997 0.275664L13.7266 6.39331C14.0911 6.76086 14.0911 7.35678 13.7266 7.72434C13.3621 8.09189 12.7712 8.09189 12.4067 7.72434L7 2.2722L1.5933 7.72434C1.22881 8.09189 0.637856 8.09189 0.273367 7.72434C-0.0911224 7.35678 -0.0911224 6.76086 0.273367 6.39331L6.34003 0.275664Z" fill="#4d9ef6"/></g><g><path fill="none" stroke="#4d9ef6" stroke-width="2" stroke-dasharray="0px 0px" d="M 2509,272L 2520,272Q2530,272 2530,282L 2530,364Q2530,374 2540,374L 2549,374"/><path transform="translate( 2511, 269 ) rotate( 450 )" d="M3 6C4.65685 6 6 4.65685 6 3C6 1.34315 4.65685 0 3 0C1.34315 0 0 1.34315 0 3C0 4.65685 1.34315 6 3 6Z" fill="#4d9ef6"/><path transform="translate( 2551, 367 ) rotate( 450 )" d="M6.34003 0.275664C6.70452 -0.0918881 7.29548 -0.0918881 7.65997 0.275664L13.7266 6.39331C14.0911 6.76086 14.0911 7.35678 13.7266 7.72434C13.3621 8.09189 12.7712 8.09189 12.4067 7.72434L7 2.2722L1.5933 7.72434C1.22881 8.09189 0.637856 8.09189 0.273367 7.72434C-0.0911224 7.35678 -0.0911224 6.76086 0.273367 6.39331L6.34003 0.275664Z" fill="#4d9ef6"/></g><g><path fill="none" stroke="#4d9ef6" stroke-width="2" stroke-dasharray="0px 0px" d="M 2729,170L 2750,170L 2795,170Q2805,170 2805,160L 2805,78Q2805,68 2815,68L 2823,68"/><path transform="translate( 2731, 167 ) rotate( 450 )" d="M3 6C4.65685 6 6 4.65685 6 3C6 1.34315 4.65685 0 3 0C1.34315 0 0 1.34315 0 3C0 4.65685 1.34315 6 3 6Z" fill="#4d9ef6"/><path transform="translate( 2825, 61 ) rotate( 450 )" d="M6.34003 0.275664C6.70452 -0.0918881 7.29548 -0.0918881 7.65997 0.275664L13.7266 6.39331C14.0911 6.76086 14.0911 7.35678 13.7266 7.72434C13.3621 8.09189 12.7712 8.09189 12.4067 7.72434L7 2.2722L1.5933 7.72434C1.22881 8.09189 0.637856 8.09189 0.273367 7.72434C-0.0911224 7.35678 -0.0911224 6.76086 0.273367 6.39331L6.34003 0.275664Z" fill="#4d9ef6"/></g><g><path fill="none" stroke="#4d9ef6" stroke-width="2" stroke-dasharray="0px 0px" d="M 2729,170L 2750,170L 2795,170Q2805,170 2805,180L 2805,262Q2805,272 2815,272L 2823,272"/><path transform="translate( 2731, 167 ) rotate( 450 )" d="M3 6C4.65685 6 6 4.65685 6 3C6 1.34315 4.65685 0 3 0C1.34315 0 0 1.34315 0 3C0 4.65685 1.34315 6 3 6Z" fill="#4d9ef6"/><path transform="translate( 2825, 265 ) rotate( 450 )" d="M6.34003 0.275664C6.70452 -0.0918881 7.29548 -0.0918881 7.65997 0.275664L13.7266 6.39331C14.0911 6.76086 14.0911 7.35678 13.7266 7.72434C13.3621 8.09189 12.7712 8.09189 12.4067 7.72434L7 2.2722L1.5933 7.72434C1.22881 8.09189 0.637856 8.09189 0.273367 7.72434C-0.0911224 7.35678 -0.0911224 6.76086 0.273367 6.39331L6.34003 0.275664Z" fill="#4d9ef6"/></g><g><path fill="none" stroke="#4d9ef6" stroke-width="2" stroke-dasharray="0px 0px" d="M 3005,68L 3015,68Q3025,68 3025,78L 3025,262Q3025,272 3015,272L 3007,272"/><path transform="translate( 3007, 65 ) rotate( 450 )" d="M3 6C4.65685 6 6 4.65685 6 3C6 1.34315 4.65685 0 3 0C1.34315 0 0 1.34315 0 3C0 4.65685 1.34315 6 3 6Z" fill="#4d9ef6"/><path transform="translate( 3005, 279 ) rotate( 630 )" d="M6.34003 0.275664C6.70452 -0.0918881 7.29548 -0.0918881 7.65997 0.275664L13.7266 6.39331C14.0911 6.76086 14.0911 7.35678 13.7266 7.72434C13.3621 8.09189 12.7712 8.09189 12.4067 7.72434L7 2.2722L1.5933 7.72434C1.22881 8.09189 0.637856 8.09189 0.273367 7.72434C-0.0911224 7.35678 -0.0911224 6.76086 0.273367 6.39331L6.34003 0.275664Z" fill="#4d9ef6"/></g><g><path fill="none" stroke="#4d9ef6" stroke-width="2" stroke-dasharray="0px 0px" d="M 3005,272L 3015,272Q3025,272 3025,262L 3025,78Q3025,68 3015,68L 3007,68"/><path transform="translate( 3007, 269 ) rotate( 450 )" d="M3 6C4.65685 6 6 4.65685 6 3C6 1.34315 4.65685 0 3 0C1.34315 0 0 1.34315 0 3C0 4.65685 1.34315 6 3 6Z" fill="#4d9ef6"/><path transform="translate( 3005, 75 ) rotate( 630 )" d="M6.34003 0.275664C6.70452 -0.0918881 7.29548 -0.0918881 7.65997 0.275664L13.7266 6.39331C14.0911 6.76086 14.0911 7.35678 13.7266 7.72434C13.3621 8.09189 12.7712 8.09189 12.4067 7.72434L7 2.2722L1.5933 7.72434C1.22881 8.09189 0.637856 8.09189 0.273367 7.72434C-0.0911224 7.35678 -0.0911224 6.76086 0.273367 6.39331L6.34003 0.275664Z" fill="#4d9ef6"/></g><g><path fill="none" stroke="#4d9ef6" stroke-width="2" stroke-dasharray="0px 0px" d="M 2015,408L 2025,408Q2035,408 2035,398L 2035,384Q2035,374 2045,374L 2053,374"/><path transform="translate( 2017, 405 ) rotate( 450 )" d="M3 6C4.65685 6 6 4.65685 6 3C6 1.34315 4.65685 0 3 0C1.34315 0 0 1.34315 0 3C0 4.65685 1.34315 6 3 6Z" fill="#4d9ef6"/><path transform="translate( 2055, 367 ) rotate( 450 )" d="M6.34003 0.275664C6.70452 -0.0918881 7.29548 -0.0918881 7.65997 0.275664L13.7266 6.39331C14.0911 6.76086 14.0911 7.35678 13.7266 7.72434C13.3621 8.09189 12.7712 8.09189 12.4067 7.72434L7 2.2722L1.5933 7.72434C1.22881 8.09189 0.637856 8.09189 0.273367 7.72434C-0.0911224 7.35678 -0.0911224 6.76086 0.273367 6.39331L6.34003 0.275664Z" fill="#4d9ef6"/></g><g><path fill="none" stroke="#4d9ef6" stroke-width="2" stroke-dasharray="0px 0px" d="M 715,849L 715,816L 715,510L 715,479"/><path transform="translate( 712, 847 ) rotate( 360 )" d="M3 6C4.65685 6 6 4.65685 6 3C6 1.34315 4.65685 0 3 0C1.34315 0 0 1.34315 0 3C0 4.65685 1.34315 6 3 6Z" fill="#4d9ef6"/><path transform="translate( 708, 477 ) rotate( 360 )" d="M6.34003 0.275664C6.70452 -0.0918881 7.29548 -0.0918881 7.65997 0.275664L13.7266 6.39331C14.0911 6.76086 14.0911 7.35678 13.7266 7.72434C13.3621 8.09189 12.7712 8.09189 12.4067 7.72434L7 2.2722L1.5933 7.72434C1.22881 8.09189 0.637856 8.09189 0.273367 7.72434C-0.0911224 7.35678 -0.0911224 6.76086 0.273367 6.39331L6.34003 0.275664Z" fill="#4d9ef6"/></g><g><path fill="none" stroke="#4d9ef6" stroke-width="2" stroke-dasharray="0px 0px" d="M 1684,510L 1705,510L 2035,510L 2053,510"/><path transform="translate( 1686, 507 ) rotate( 450 )" d="M3 6C4.65685 6 6 4.65685 6 3C6 1.34315 4.65685 0 3 0C1.34315 0 0 1.34315 0 3C0 4.65685 1.34315 6 3 6Z" fill="#4d9ef6"/><path transform="translate( 2055, 503 ) rotate( 450 )" d="M6.34003 0.275664C6.70452 -0.0918881 7.29548 -0.0918881 7.65997 0.275664L13.7266 6.39331C14.0911 6.76086 14.0911 7.35678 13.7266 7.72434C13.3621 8.09189 12.7712 8.09189 12.4067 7.72434L7 2.2722L1.5933 7.72434C1.22881 8.09189 0.637856 8.09189 0.273367 7.72434C-0.0911224 7.35678 -0.0911224 6.76086 0.273367 6.39331L6.34003 0.275664Z" fill="#4d9ef6"/></g><g><path fill="none" stroke="#4d9ef6" stroke-width="2" stroke-dasharray="0px 0px" d="M 530,1122L 550,1122L 1145,1122Q1155,1122 1155,1112L 1155,442L 1155,411"/><path transform="translate( 532, 1119 ) rotate( 450 )" d="M3 6C4.65685 6 6 4.65685 6 3C6 1.34315 4.65685 0 3 0C1.34315 0 0 1.34315 0 3C0 4.65685 1.34315 6 3 6Z" fill="#4d9ef6"/><path transform="translate( 1148, 409 ) rotate( 360 )" d="M6.34003 0.275664C6.70452 -0.0918881 7.29548 -0.0918881 7.65997 0.275664L13.7266 6.39331C14.0911 6.76086 14.0911 7.35678 13.7266 7.72434C13.3621 8.09189 12.7712 8.09189 12.4067 7.72434L7 2.2722L1.5933 7.72434C1.22881 8.09189 0.637856 8.09189 0.273367 7.72434C-0.0911224 7.35678 -0.0911224 6.76086 0.273367 6.39331L6.34003 0.275664Z" fill="#4d9ef6"/></g><g><path fill="none" stroke="#4d9ef6" stroke-width="2" stroke-dasharray="0px 0px" d="M 530,1428L 550,1428L 1145,1428Q1155,1428 1155,1418L 1155,442L 1155,411"/><path transform="translate( 532, 1425 ) rotate( 450 )" d="M3 6C4.65685 6 6 4.65685 6 3C6 1.34315 4.65685 0 3 0C1.34315 0 0 1.34315 0 3C0 4.65685 1.34315 6 3 6Z" fill="#4d9ef6"/><path transform="translate( 1148, 409 ) rotate( 360 )" d="M6.34003 0.275664C6.70452 -0.0918881 7.29548 -0.0918881 7.65997 0.275664L13.7266 6.39331C14.0911 6.76086 14.0911 7.35678 13.7266 7.72434C13.3621 8.09189 12.7712 8.09189 12.4067 7.72434L7 2.2722L1.5933 7.72434C1.22881 8.09189 0.637856 8.09189 0.273367 7.72434C-0.0911224 7.35678 -0.0911224 6.76086 0.273367 6.39331L6.34003 0.275664Z" fill="#4d9ef6"/></g></g></g></g></svg>